<?xml version="1.0" standalone="no"?>
<!DOCTYPE svg PUBLIC "-//W3C//DTD SVG 20010904//EN"
 "http://www.w3.org/TR/2001/REC-SVG-20010904/DTD/svg10.dtd">
<svg version="1.0" xmlns="http://www.w3.org/2000/svg"
 width="260.000000pt" height="260.000000pt" viewBox="0 0 260.000000 260.000000"
 preserveAspectRatio="xMidYMid meet">
<metadata>
Created by potrace 1.11, written by Peter Selinger 2001-2013
</metadata>
<g transform="translate(0.000000,260.000000) scale(0.100000,-0.100000)"
fill="#000000" stroke="none">
<path d="M1213 2465 c0 -8 4 -12 9 -9 5 3 6 10 3 15 -9 13 -12 11 -12 -6z"/>
<path d="M1014 2458 c-6 -9 22 -58 32 -58 3 0 -2 10 -10 22 -18 25 -21 42 -7
33 5 -3 12 -2 15 3 3 5 -2 9 -10 9 -8 0 -17 -4 -20 -9z"/>
<path d="M1067 2464 c7 -3 16 -5 20 -5 5 0 13 -10 20 -22 7 -12 12 -17 12 -12
1 20 -18 39 -41 41 -13 2 -17 0 -11 -2z"/>
<path d="M1136 2463 c-3 -4 -6 -11 -6 -17 0 -6 4 -4 10 4 8 12 10 12 16 -3 3
-9 10 -17 15 -17 12 0 0 28 -16 34 -7 2 -16 2 -19 -1z"/>
<path d="M1253 2454 c-3 -8 -10 -11 -17 -7 -6 4 -5 -1 3 -11 19 -23 51 -40 51
-26 0 5 -6 10 -13 10 -7 0 -13 8 -14 19 -1 14 3 17 18 14 10 -3 19 -3 19 0 0
13 -42 14 -47 1z"/>
<path d="M904 2446 c-4 -11 -37 -15 -162 -15 -86 -1 -157 -3 -159 -5 -2 -1 4
-25 12 -52 13 -44 13 -50 0 -60 -14 -10 -14 -12 0 -18 11 -4 14 -2 9 7 -4 6
-3 8 2 4 4 -4 23 -56 41 -114 30 -98 31 -108 17 -124 -17 -18 -11 -40 9 -38 9
0 9 2 0 6 -7 2 -13 9 -13 14 0 6 5 7 12 3 7 -4 8 -3 4 4 -4 7 -2 12 3 12 6 0
11 -9 11 -20 0 -31 -1 -35 -10 -33 -13 4 -32 -25 -25 -37 3 -6 11 -8 16 -5 5
4 9 -1 9 -9 0 -19 16 -21 26 -4 4 6 3 8 -3 5 -6 -4 -14 0 -17 9 -3 8 -10 12
-16 9 -5 -3 -10 -2 -10 3 0 17 13 22 28 9 13 -9 14 -9 8 1 -4 6 -2 12 3 12 11
0 16 -26 13 -63 -1 -10 2 -16 8 -12 5 3 25 -47 45 -112 20 -65 47 -152 60
-193 13 -41 81 -259 150 -485 103 -333 181 -587 231 -747 3 -12 0 -18 -10 -18
-8 0 -17 -4 -20 -8 -3 -5 5 -8 17 -8 15 1 22 -5 23 -19 0 -11 6 -31 13 -44 8
-14 9 -21 2 -17 -6 4 -11 2 -11 -3 0 -6 8 -11 18 -11 14 0 13 -4 -7 -19 -14
-10 -21 -23 -17 -30 4 -6 11 -9 15 -6 5 2 13 -7 20 -21 6 -14 16 -22 22 -18 8
4 9 -1 5 -17 -6 -20 -5 -21 4 -6 12 19 4 41 -11 32 -5 -4 -9 -1 -9 5 0 6 11
15 25 20 14 5 25 12 25 14 0 7 -31 -4 -46 -16 -7 -5 -14 -3 -18 7 -3 9 -10 13
-16 10 -5 -3 -10 -2 -10 3 0 6 7 12 15 16 8 3 15 1 15 -4 0 -5 16 -7 35 -5 24
3 35 1 35 -8 0 -7 3 -8 8 -2 10 14 65 15 74 1 5 -7 8 -7 8 -1 0 6 11 12 25 13
14 1 25 -3 25 -10 0 -6 -3 -8 -6 -5 -4 3 -16 1 -28 -5 -11 -7 -27 -13 -34 -14
-8 -1 -17 -6 -20 -10 -4 -4 1 -4 11 -1 11 4 20 1 23 -8 4 -8 11 -15 16 -15 6
0 6 6 -1 14 -10 12 -8 17 8 26 12 6 21 7 21 3 0 -4 7 1 15 11 15 19 15 19 28
1 11 -14 16 -15 22 -5 5 9 4 11 -3 6 -7 -4 -12 -3 -12 2 0 5 33 10 72 11 40 1
76 5 79 9 3 4 21 50 39 102 31 90 37 112 40 135 0 6 10 -1 20 -14 11 -13 20
-19 20 -14 0 5 -5 14 -12 21 -8 8 -8 15 1 26 9 11 9 16 0 22 -7 4 -9 3 -5 -4
3 -6 2 -13 -4 -17 -12 -7 -14 18 -2 29 4 4 7 11 8 14 6 49 33 83 35 45 0 -12
2 -13 6 -5 3 7 0 19 -6 26 -9 10 -8 21 0 42 7 16 11 37 10 47 -1 9 3 17 8 17
6 0 10 -5 9 -11 -2 -7 9 -15 25 -20 16 -4 25 -4 21 2 -3 5 -14 9 -25 9 -11 0
-18 4 -14 9 3 5 1 12 -4 15 -9 6 -1 38 22 96 5 14 11 32 13 40 6 39 14 64 23
73 5 5 7 16 4 25 -4 10 -2 13 5 8 8 -5 10 -2 6 8 -3 8 -2 21 2 28 5 7 10 22
11 33 2 11 11 26 20 33 9 6 12 12 5 12 -7 0 -12 4 -12 10 0 5 8 6 18 3 14 -6
15 -4 4 9 -11 13 -10 22 2 51 8 20 11 39 8 43 -4 4 -1 4 6 -1 10 -5 13 -2 10
11 -3 11 1 31 8 45 7 15 10 29 7 33 -4 3 -1 6 5 6 6 0 9 6 6 13 -2 7 13 69 35
138 22 68 60 192 86 274 26 83 62 199 81 259 41 127 123 389 134 429 l9 27
-164 0 -163 0 -25 -82 c-14 -46 -40 -129 -57 -185 -26 -85 -34 -101 -51 -100
-11 1 -19 9 -19 20 0 11 4 15 12 11 7 -5 8 -3 3 5 -10 18 -28 -2 -23 -25 2
-11 10 -19 17 -19 16 0 24 -32 10 -41 -5 -3 -9 -14 -9 -25 0 -10 -4 -19 -10
-19 -5 0 -7 -8 -4 -17 5 -15 3 -15 -10 1 -9 11 -16 16 -16 11 0 -5 7 -17 17
-27 15 -17 15 -18 -8 -19 -17 -1 -19 -3 -7 -6 15 -4 16 -8 6 -26 -6 -12 -10
-24 -9 -27 1 -3 -3 -24 -10 -47 -7 -27 -18 -43 -28 -44 -10 0 -11 -2 -3 -6 6
-2 12 -10 12 -16 0 -20 -132 -442 -142 -454 -6 -7 -8 -13 -5 -13 3 0 -1 -16
-9 -35 -8 -19 -11 -35 -8 -35 4 0 0 -8 -8 -17 -9 -10 -14 -26 -13 -35 2 -9 -3
-19 -11 -22 -8 -3 -14 -11 -14 -18 0 -9 3 -9 11 2 9 13 10 13 6 -1 -3 -10 -11
-37 -18 -60 -7 -24 -20 -50 -29 -57 -8 -8 -9 -11 -2 -7 10 5 11 0 6 -22 -7
-29 -51 -176 -61 -203 -8 -20 -64 149 -59 178 2 12 0 22 -4 22 -6 0 -26 56
-34 100 -2 8 -8 28 -15 44 -16 39 -6 45 13 8 19 -38 57 -39 63 -2 2 18 1 21
-6 10 -5 -8 -8 -17 -5 -21 2 -4 -5 -7 -16 -6 -25 2 -26 13 -2 26 9 6 12 11 5
11 -6 0 -15 -5 -18 -11 -5 -6 -12 -4 -20 8 -7 10 -11 21 -9 25 3 4 -3 5 -13 1
-16 -6 -17 -5 -3 12 8 10 10 16 3 12 -6 -4 -15 -2 -19 4 -4 8 -3 9 4 5 7 -4
12 -2 12 3 0 6 -5 11 -11 11 -5 0 -8 4 -5 9 4 5 3 11 -1 13 -11 4 -41 96 -133
403 -44 149 -94 315 -111 370 -18 55 -32 112 -33 127 0 16 -4 28 -8 28 -5 0
-8 13 -8 29 0 17 -4 33 -10 36 -5 3 -10 14 -10 23 1 15 2 15 15 -2 8 -11 15
-15 15 -10 0 6 -12 21 -26 33 -25 21 -25 23 -7 36 13 10 20 10 25 2 5 -8 8 -8
8 -1 0 5 -6 18 -12 27 -10 13 -17 14 -28 6 -12 -9 -12 -10 3 -5 12 4 17 2 15
-6 -9 -27 -26 -16 -40 26 -8 25 -11 43 -7 40 5 -3 9 0 9 5 0 6 -5 11 -11 11
-5 0 -7 5 -4 10 5 9 -23 15 -47 11 -5 0 -8 4 -8 9 0 6 -5 10 -11 10 -5 0 -7
-4 -4 -10 3 -5 -1 -10 -10 -10 -11 0 -15 5 -11 15 3 8 3 15 0 15 -2 0 -7 -6
-10 -14z"/>
<path d="M1193 2434 c0 -17 2 -22 7 -13 5 6 6 18 3 26 -8 19 -10 16 -10 -13z"/>
<path d="M1046 2441 c-3 -5 1 -14 9 -21 10 -9 15 -9 15 -1 0 6 -6 11 -12 11
-9 0 -8 4 2 10 9 6 10 10 3 10 -6 0 -14 -4 -17 -9z"/>
<path d="M1340 2440 c8 -5 20 -10 25 -10 6 0 3 5 -5 10 -8 5 -19 10 -25 10 -5
0 -3 -5 5 -10z"/>
<path d="M1410 2433 c-8 -2 -21 -6 -28 -9 -9 -3 -6 -13 12 -37 14 -19 23 -36
20 -40 -3 -3 4 -10 15 -17 12 -6 21 -8 21 -4 0 3 7 1 15 -6 8 -6 20 -8 27 -4
7 5 19 9 27 11 22 3 31 17 20 33 -9 13 -10 12 -6 -2 7 -21 -12 -28 -35 -14
-13 8 -23 8 -36 -1 -12 -7 -24 -8 -33 -2 -8 5 -10 9 -5 9 4 0 -4 16 -18 35
-26 34 -26 35 -6 35 12 0 19 -4 15 -9 -9 -15 13 -23 32 -11 16 10 15 10 -4 5
-18 -5 -21 -2 -18 14 2 12 3 21 2 20 -1 0 -9 -3 -17 -6z m82 -105 c-9 -9 -15
-9 -24 0 -9 9 -7 12 12 12 19 0 21 -3 12 -12z"/>
<path d="M1126 2415 c-3 -9 -12 -12 -23 -9 -14 5 -15 4 -4 -4 8 -6 29 -8 47
-6 28 3 32 1 27 -13 -5 -14 -3 -15 7 -6 19 17 2 36 -28 28 -22 -5 -24 -4 -13
9 8 9 9 16 3 16 -5 0 -12 -7 -16 -15z"/>
<path d="M1214 2417 c-3 -9 -4 -22 -1 -29 3 -7 6 -3 6 10 1 14 5 20 12 17 6
-4 8 -14 4 -24 -5 -13 -4 -14 6 -3 11 10 10 15 -4 29 -15 15 -17 15 -23 0z"/>
<path d="M1320 2421 c17 -5 21 -9 12 -15 -6 -4 -18 -4 -24 0 -10 5 -10 4 -1
-6 10 -11 15 -11 27 0 20 16 11 30 -17 29 -20 -1 -20 -2 3 -8z"/>
<path d="M1477 2399 c4 -13 8 -18 11 -10 2 7 -1 18 -6 23 -8 8 -9 4 -5 -13z"/>
<path d="M1076 2385 c10 -8 24 -14 29 -14 6 0 1 6 -9 14 -11 8 -24 15 -30 15
-5 0 -1 -7 10 -15z"/>
<path d="M1340 2385 c-7 -8 -10 -18 -6 -22 3 -3 6 -2 6 3 0 5 9 10 20 10 11 0
20 -6 20 -13 0 -7 5 -13 11 -13 7 0 6 8 -3 22 -19 29 -32 32 -48 13z"/>
<path d="M1510 2390 c0 -6 7 -10 15 -10 8 0 15 2 15 4 0 2 -7 6 -15 10 -8 3
-15 1 -15 -4z"/>
<path d="M1030 2380 c0 -5 5 -10 10 -10 6 0 10 5 10 10 0 6 -4 10 -10 10 -5 0
-10 -4 -10 -10z"/>
<path d="M1259 2387 c0 -1 -2 -10 -4 -20 -2 -10 -9 -26 -17 -36 -7 -9 -3 -6
10 7 12 13 20 27 17 32 -3 5 4 8 15 7 13 -1 19 -6 15 -15 -2 -7 0 -10 5 -7 10
6 14 -7 11 -32 -1 -6 3 -14 9 -18 5 -3 7 0 4 8 -3 8 -1 18 5 22 6 3 11 -2 11
-12 0 -11 5 -24 12 -31 9 -9 9 -15 0 -24 -9 -9 -12 -8 -12 5 0 9 -5 17 -10 17
-7 0 -7 -6 0 -20 6 -11 16 -17 25 -14 17 7 20 25 6 40 -5 5 -11 17 -13 27 -1
10 -7 17 -11 15 -5 -2 -14 8 -22 21 -7 14 -22 26 -34 28 -11 1 -21 2 -22 0z"/>
<path d="M1450 2379 c0 -5 -4 -7 -10 -4 -6 3 -7 -1 -4 -10 4 -9 7 -15 8 -13 1
2 8 11 15 21 9 11 10 17 2 17 -6 0 -11 -5 -11 -11z"/>
<path d="M1114 2366 c-9 -10 -7 -15 7 -24 15 -10 20 -8 30 9 6 11 8 23 6 26
-3 2 -8 -5 -12 -16 -3 -12 -10 -19 -15 -16 -5 3 -7 12 -3 20 6 18 2 19 -13 1z"/>
<path d="M1550 2371 c0 -10 19 -25 25 -20 1 2 -3 10 -11 17 -8 7 -14 8 -14 3z"/>
<path d="M1072 2350 c7 -10 14 -18 15 -16 6 6 -9 36 -18 36 -5 0 -4 -9 3 -20z"/>
<path d="M1185 2361 c-3 -6 3 -15 14 -21 16 -8 22 -6 31 10 7 13 7 20 0 20 -5
0 -10 -7 -10 -15 0 -9 -6 -12 -16 -8 -13 5 -13 7 -2 14 9 6 9 9 1 9 -6 0 -14
-4 -18 -9z"/>
<path d="M1490 2366 c0 -2 7 -7 16 -10 8 -3 12 -2 9 4 -6 10 -25 14 -25 6z"/>
<path d="M1358 2345 c6 -11 13 -28 16 -38 3 -10 11 -15 17 -11 8 4 9 -1 4 -17
-4 -13 -4 -21 0 -17 12 11 16 66 5 73 -5 3 -7 0 -4 -8 3 -8 1 -18 -5 -22 -6
-3 -11 2 -11 13 0 11 -7 26 -17 33 -14 13 -15 12 -5 -6z"/>
<path d="M1592 2348 c-7 -7 -12 -20 -12 -31 0 -10 -5 -15 -11 -12 -6 4 -8 14
-5 22 3 8 2 11 -4 8 -10 -6 -8 -71 4 -82 4 -5 4 5 0 21 -5 21 -4 27 5 22 6 -4
14 0 17 11 3 10 10 26 15 36 11 20 8 22 -9 5z"/>
<path d="M1153 2330 c-10 -14 -9 -21 2 -30 15 -13 39 -4 30 11 -4 5 -2 9 4 9
5 0 12 -5 14 -10 3 -6 4 -5 3 2 -2 7 -9 13 -17 13 -8 0 -13 -6 -11 -12 2 -14
-10 -17 -21 -6 -4 3 -2 12 5 20 6 7 9 15 7 18 -3 2 -10 -4 -16 -15z"/>
<path d="M1274 2341 c3 -5 -1 -12 -10 -15 -8 -3 -13 -10 -10 -15 3 -5 -6 -12
-21 -16 -21 -5 -24 -8 -12 -16 7 -5 19 -9 24 -9 6 0 4 4 -3 9 -10 6 -8 10 9
14 13 4 20 10 16 14 -4 4 2 12 14 18 19 11 19 13 5 18 -10 4 -15 3 -12 -2z"/>
<path d="M1612 2328 c3 -7 12 -14 22 -14 13 -2 13 -1 1 3 -8 2 -13 9 -10 14 4
5 1 9 -5 9 -7 0 -10 -6 -8 -12z"/>
<path d="M1097 2315 c-8 -18 11 -31 25 -17 11 11 3 32 -12 32 -4 0 -10 -7 -13
-15z m23 -5 c0 -5 -5 -10 -11 -10 -5 0 -7 5 -4 10 3 6 8 10 11 10 2 0 4 -4 4
-10z"/>
<path d="M1290 2301 c8 -6 11 -11 7 -11 -5 0 1 -13 12 -29 19 -26 19 -41 -1
-41 -4 0 -7 5 -5 11 1 6 -5 14 -13 16 -13 4 -13 3 0 -6 8 -6 11 -11 6 -11 -6
0 -5 -5 2 -12 8 -8 15 -8 26 2 14 11 13 16 -7 44 -12 17 -20 33 -19 36 2 2 -2
6 -10 8 -9 2 -8 0 2 -7z"/>
<path d="M1430 2301 c8 -5 18 -7 23 -4 5 3 6 -4 3 -15 -4 -11 -2 -23 3 -26 10
-7 41 20 41 35 0 6 4 8 8 5 4 -2 14 0 22 5 12 7 10 8 -7 6 -12 -2 -31 -14 -42
-28 l-21 -24 3 24 c1 18 -4 24 -23 27 -18 3 -21 2 -10 -5z"/>
<path d="M1592 2290 c-7 -11 -8 -20 -3 -20 9 0 24 30 18 36 -1 2 -8 -6 -15
-16z"/>
<path d="M1657 2304 c-8 -8 3 -34 15 -34 6 0 4 8 -3 17 -12 15 -12 16 4 10 11
-4 16 -3 12 3 -7 11 -19 13 -28 4z"/>
<path d="M558 2271 c4 -10 7 -11 10 -3 2 7 8 10 13 6 5 -3 9 -1 9 5 0 5 -9 9
-19 8 -12 -1 -17 -6 -13 -16z"/>
<path d="M1060 2280 c18 -12 30 -13 30 -2 0 4 -10 9 -22 9 -18 2 -20 0 -8 -7z"/>
<path d="M1130 2286 c0 -2 7 -7 16 -10 8 -3 12 -2 9 4 -6 10 -25 14 -25 6z"/>
<path d="M1628 2278 c17 -17 15 -33 -3 -18 -10 9 -15 9 -15 1 0 -6 5 -11 10
-11 6 0 10 -8 11 -17 0 -14 2 -13 9 5 10 25 4 52 -13 52 -7 0 -7 -4 1 -12z"/>
<path d="M1176 2269 c3 -5 14 -9 25 -9 11 0 18 -4 15 -9 -4 -5 5 -23 19 -40
24 -28 25 -30 5 -28 -11 1 -20 7 -20 14 0 7 -5 13 -10 13 -7 0 -7 -6 0 -19 16
-30 26 -32 51 -12 13 10 31 16 39 14 13 -4 13 -3 0 6 -9 6 -19 6 -26 0 -13
-11 -44 19 -48 47 -2 10 -15 21 -29 25 -16 4 -25 3 -21 -2z"/>
<path d="M588 2259 c-24 -13 -23 -26 3 -40 13 -6 19 -7 15 -1 -3 6 0 13 6 16
7 3 3 3 -9 0 -13 -3 -23 -1 -23 5 0 10 14 15 33 12 5 -1 6 3 2 9 -7 12 -6 12
-27 -1z"/>
<path d="M1099 2268 c-8 -34 -8 -51 0 -38 5 8 7 18 5 22 -3 4 5 8 17 8 12 0
19 -3 16 -6 -4 -4 2 -19 13 -34 18 -26 18 -40 -2 -40 -4 0 -7 6 -5 13 1 7 -10
12 -30 13 -25 1 -31 -2 -23 -12 8 -8 8 -14 0 -17 -6 -3 -5 -4 2 -2 7 1 12 8
11 14 -2 6 6 11 18 11 11 0 18 -4 14 -9 -6 -11 33 -36 43 -27 3 3 -1 6 -8 6
-11 0 -11 3 -2 12 8 8 6 19 -11 42 -12 17 -20 33 -17 36 3 3 -5 6 -17 8 -13 2
-23 2 -24 0z"/>
<path d="M1268 2263 c7 -3 16 -2 19 1 4 3 -2 6 -13 5 -11 0 -14 -3 -6 -6z"/>
<path d="M1414 2256 c5 -15 2 -17 -15 -13 -24 7 -49 -1 -49 -15 0 -5 5 -6 10
-3 6 3 10 1 10 -4 0 -6 5 -11 11 -11 8 0 7 5 -2 16 -11 13 -9 14 13 9 30 -8
47 11 28 28 -10 9 -12 8 -6 -7z"/>
<path d="M1531 2265 c0 -5 6 -19 14 -29 8 -11 15 -15 15 -10 0 6 -7 19 -15 30
-8 10 -14 15 -14 9z"/>
<path d="M1677 2256 c-17 -13 -17 -14 0 -20 10 -4 14 -4 10 0 -4 4 1 13 11 20
9 7 13 13 7 13 -5 0 -18 -6 -28 -13z"/>
<path d="M1161 2254 c-1 -5 5 -18 12 -27 9 -13 16 -14 27 -6 12 9 12 10 -4 5
-14 -5 -17 -2 -12 9 3 9 2 14 -3 10 -5 -3 -12 1 -14 7 -3 7 -6 8 -6 2z"/>
<path d="M1241 2254 c-1 -5 5 -18 12 -29 11 -14 16 -15 22 -5 6 9 4 11 -5 5
-10 -6 -12 -4 -7 9 4 9 3 15 -2 11 -5 -3 -12 1 -14 7 -3 7 -6 8 -6 2z"/>
<path d="M510 2232 c11 -21 34 -27 30 -8 -1 5 4 13 12 18 10 8 10 9 -2 5 -8
-2 -14 -10 -12 -16 3 -16 -9 -13 -25 7 -13 15 -13 15 -3 -6z"/>
<path d="M1506 2236 c10 -8 21 -12 24 -10 5 6 -21 24 -34 24 -6 0 -1 -6 10
-14z"/>
<path d="M1592 2236 c7 -8 15 -12 17 -11 5 6 -10 25 -20 25 -5 0 -4 -6 3 -14z"/>
<path d="M1713 2244 c4 -4 0 -12 -8 -18 -11 -8 -12 -15 -4 -26 9 -13 10 -12 5
3 -6 20 5 22 22 5 13 -13 16 -32 4 -24 -5 3 -21 -7 -38 -20 l-29 -26 33 22
c17 12 32 18 32 14 0 -5 5 -3 12 4 9 9 7 16 -6 31 -13 14 -14 20 -5 23 8 3 6
7 -6 12 -11 4 -16 4 -12 0z"/>
<path d="M1468 2233 c10 -4 9 -9 -4 -24 -13 -15 -15 -22 -6 -31 7 -7 12 -9 12
-4 0 4 15 -2 33 -14 l32 -22 -29 26 c-17 13 -33 23 -38 20 -12 -8 -9 11 4 24
17 17 28 15 22 -5 -5 -15 -4 -16 5 -3 8 11 7 18 -6 28 -9 6 -22 12 -27 11 -6
0 -5 -3 2 -6z"/>
<path d="M1430 2220 c0 -5 5 -10 10 -10 6 0 10 5 10 10 0 6 -4 10 -10 10 -5 0
-10 -4 -10 -10z"/>
<path d="M1570 2226 c0 -2 7 -9 15 -16 13 -11 14 -10 9 4 -5 14 -24 23 -24 12z"/>
<path d="M1646 2215 c-3 -9 -12 -12 -23 -9 -15 5 -16 4 -3 -5 20 -15 23 -14
38 9 7 11 8 20 3 20 -5 0 -11 -7 -15 -15z"/>
<path d="M1750 2221 c0 -6 4 -12 8 -15 5 -3 9 1 9 9 0 8 -4 15 -9 15 -4 0 -8
-4 -8 -9z"/>
<path d="M546 2204 c-11 -8 -16 -14 -10 -14 13 0 39 18 34 24 -3 2 -14 -2 -24
-10z"/>
<path d="M621 2203 c-1 -12 4 -25 9 -28 6 -4 8 -10 6 -14 -3 -4 0 -13 5 -21 7
-12 8 -11 6 5 -2 11 -7 27 -10 35 -3 8 -8 22 -10 30 -4 10 -6 7 -6 -7z"/>
<path d="M490 2206 c0 -2 7 -7 16 -10 8 -3 12 -2 9 4 -6 10 -25 14 -25 6z"/>
<path d="M576 2195 c-5 -15 30 -42 42 -31 3 3 0 6 -7 6 -7 0 -9 4 -6 10 3 6
-1 7 -10 4 -11 -5 -14 -2 -9 10 3 9 4 16 1 16 -3 0 -7 -7 -11 -15z"/>
<path d="M1325 2200 c-3 -6 1 -7 9 -4 18 7 21 14 7 14 -6 0 -13 -4 -16 -10z"/>
<path d="M1395 2199 c-11 -16 -1 -19 13 -3 7 8 8 14 3 14 -5 0 -13 -5 -16 -11z"/>
<path d="M1540 2200 c18 -12 30 -13 30 -2 0 4 -10 9 -22 9 -18 2 -20 0 -8 -7z"/>
<path d="M1674 2202 c3 -5 1 -12 -6 -14 -6 -2 -13 -15 -15 -29 -2 -18 -1 -20
6 -9 5 8 7 18 5 22 -3 4 2 8 10 8 19 0 21 16 4 26 -6 4 -8 3 -4 -4z"/>
<path d="M454 2168 c1 -17 7 -33 14 -36 7 -2 10 -8 7 -13 -4 -5 1 -6 11 -2 15
5 15 7 -2 17 -27 16 -28 41 -3 43 17 2 18 -1 9 -13 -9 -10 -9 -14 -1 -14 6 0
11 5 11 10 0 6 0 13 0 18 0 4 -6 7 -13 7 -6 0 -17 4 -23 7 -7 5 -11 -3 -10
-24z"/>
<path d="M1344 2185 c-10 -8 -14 -14 -9 -15 15 0 40 18 34 24 -3 3 -14 -1 -25
-9z"/>
<path d="M1420 2190 c-8 -5 -12 -12 -9 -15 4 -3 12 1 19 10 14 17 11 19 -10 5z"/>
<path d="M1510 2190 c0 -5 7 -10 16 -10 8 0 13 -4 10 -8 -2 -4 -1 -14 4 -22 7
-11 9 -9 7 8 -1 23 -37 54 -37 32z"/>
<path d="M1193 2172 c0 -12 5 -22 9 -22 11 0 10 12 -2 30 -7 12 -9 10 -7 -8z"/>
<path d="M1572 2178 c-17 -17 3 -49 26 -41 15 6 15 5 3 -11 -10 -12 -17 -14
-25 -6 -5 5 -14 10 -20 10 -5 0 -1 -6 10 -14 18 -14 18 -15 -3 -13 -13 1 -23
7 -23 14 0 7 -5 13 -10 13 -12 0 4 -35 20 -45 6 -4 29 12 52 34 34 34 38 44
28 56 -15 18 -42 19 -58 3z m52 -6 c7 -12 -7 -27 -24 -27 -17 0 -31 15 -24 27
3 4 14 8 24 8 10 0 21 -4 24 -8z"/>
<path d="M1756 2173 c-6 -14 -5 -15 5 -6 7 7 10 15 7 18 -3 3 -9 -2 -12 -12z"/>
<path d="M520 2177 c0 -18 21 -47 31 -42 5 4 9 2 9 -4 0 -5 -5 -12 -10 -14 -6
-3 -5 -4 2 -3 7 2 13 9 13 17 0 8 -6 13 -12 12 -7 -2 -13 1 -13 5 0 20 14 20
40 2 15 -11 30 -17 34 -13 3 3 6 1 6 -4 0 -6 -5 -14 -10 -16 -6 -3 -5 -4 2 -3
7 2 13 8 13 14 0 7 -2 11 -5 10 -3 -2 -19 7 -37 20 -22 15 -34 19 -39 11 -4
-8 -9 -7 -15 2 -5 8 -9 10 -9 6z"/>
<path d="M1274 2169 c-3 -6 0 -18 9 -26 13 -14 16 -13 27 7 6 12 9 24 7 27 -3
2 -8 -5 -12 -16 -3 -12 -10 -19 -15 -16 -5 3 -7 12 -3 20 6 17 -3 20 -13 4z"/>
<path d="M1114 2161 c4 -5 1 -12 -4 -14 -6 -3 -5 -4 2 -3 15 3 23 26 8 26 -6
0 -9 -4 -6 -9z"/>
<path d="M1355 2159 c-16 -7 -14 -8 9 -4 26 6 28 4 17 -9 -9 -11 -10 -16 -2
-16 6 0 11 5 11 10 0 6 8 10 18 11 14 0 14 2 -3 9 -25 11 -26 11 -50 -1z"/>
<path d="M1775 2160 c-8 -13 4 -32 16 -25 5 4 9 -1 9 -9 0 -9 5 -16 10 -16 7
0 7 7 0 20 -6 11 -15 18 -21 15 -5 -4 -9 -1 -9 5 0 8 10 10 28 6 20 -5 23 -4
12 4 -19 13 -37 13 -45 0z"/>
<path d="M416 2145 c-11 -8 -15 -15 -9 -15 6 0 16 7 23 15 16 19 11 19 -14 0z"/>
<path d="M1468 2153 c6 -2 10 -9 7 -14 -4 -5 0 -6 7 -4 8 3 14 -2 15 -13 1
-11 -6 -18 -19 -19 -11 -1 -18 1 -14 4 7 8 -12 43 -24 43 -6 0 -10 -5 -10 -11
0 -5 5 -7 12 -3 8 5 9 2 5 -9 -8 -22 31 -51 50 -36 24 21 1 70 -32 68 -5 0 -4
-3 3 -6z"/>
<path d="M1705 2147 c-14 -11 -15 -16 -5 -22 9 -6 11 -4 5 5 -6 10 -4 12 9 7
9 -4 15 -3 11 2 -3 5 1 12 7 14 7 3 8 6 2 6 -5 1 -18 -5 -29 -12z"/>
<path d="M514 2126 c3 -16 8 -31 11 -35 3 -3 4 7 1 23 -3 16 -8 31 -11 35 -3
3 -4 -7 -1 -23z"/>
<path d="M1136 2142 c-2 -4 9 -7 25 -7 31 -1 30 7 -1 12 -10 1 -21 -1 -24 -5z"/>
<path d="M1214 2138 c-2 -4 7 -5 22 -2 18 3 23 1 18 -7 -4 -8 -3 -9 5 -5 6 4
9 11 6 16 -6 10 -44 9 -51 -2z"/>
<path d="M1317 2135 c-8 -20 9 -28 30 -15 16 9 15 10 -4 5 -18 -5 -22 -3 -17
9 3 9 4 16 1 16 -3 0 -7 -7 -10 -15z"/>
<path d="M1745 2140 c-3 -5 -2 -17 3 -26 8 -15 10 -15 15 0 5 12 3 15 -5 10
-8 -5 -9 -2 -5 9 7 19 2 23 -8 7z"/>
<path d="M1833 2114 c0 -17 2 -22 7 -13 5 6 6 18 3 26 -8 19 -10 16 -10 -13z"/>
<path d="M1411 2113 c12 -15 12 -16 -3 -10 -10 3 -18 2 -18 -3 0 -11 23 -14
33 -4 8 8 -3 34 -15 34 -6 0 -4 -8 3 -17z"/>
<path d="M1621 2116 c-10 -12 -8 -17 8 -26 17 -8 23 -7 33 9 11 19 14 19 30 4
10 -9 18 -13 18 -8 0 9 -31 34 -42 35 -5 0 -8 -6 -8 -13 0 -7 -10 -13 -22 -14
-22 -2 -22 -1 -4 13 11 8 15 14 9 14 -6 0 -16 -6 -22 -14z"/>
<path d="M650 2111 c0 -6 4 -13 10 -16 6 -3 7 1 4 9 -7 18 -14 21 -14 7z"/>
<path d="M1370 2111 c0 -7 -5 -9 -12 -5 -7 5 -8 3 -3 -5 5 -9 10 -10 18 -2 6
6 8 14 4 18 -4 3 -7 1 -7 -6z"/>
<path d="M401 2090 c-13 -11 -18 -20 -13 -20 6 0 14 5 17 10 5 8 11 7 21 -1
10 -8 18 -9 27 0 14 11 27 5 27 -11 0 -5 -4 -7 -9 -3 -6 3 -15 -3 -20 -14 -8
-14 -7 -22 4 -31 9 -7 18 -10 22 -6 3 3 2 6 -3 6 -5 0 -10 9 -11 20 -1 11 2
18 7 15 18 -11 21 17 4 36 -22 24 -43 24 -73 -1z m51 -2 c-9 -9 -15 -9 -24 0
-9 9 -7 12 12 12 19 0 21 -3 12 -12z"/>
<path d="M491 2105 c0 -5 6 -19 14 -29 8 -11 15 -15 15 -10 0 6 -7 19 -15 30
-8 10 -14 15 -14 9z"/>
<path d="M570 2100 c0 -5 -8 -10 -17 -11 -15 0 -15 -2 2 -9 11 -4 30 -6 43 -3
18 4 21 2 16 -13 -6 -15 -4 -16 6 -7 19 17 2 36 -28 28 -22 -5 -24 -4 -13 9 9
11 10 16 2 16 -6 0 -11 -4 -11 -10z"/>
<path d="M630 2105 c0 -5 5 -17 10 -25 5 -8 10 -10 10 -5 0 6 -5 17 -10 25 -5
8 -10 11 -10 5z"/>
<path d="M1780 2095 c12 -14 9 -15 -21 -10 -18 3 -31 3 -28 0 12 -11 50 -14
72 -5 17 7 18 9 5 9 -10 1 -18 6 -18 11 0 6 -5 10 -11 10 -8 0 -7 -5 1 -15z"/>
<path d="M1427 2076 c-4 -10 -1 -13 9 -9 15 6 19 23 5 23 -5 0 -11 -7 -14 -14z"/>
<path d="M1510 2080 c0 -5 5 -10 10 -10 6 0 10 5 10 10 0 6 -4 10 -10 10 -5 0
-10 -4 -10 -10z"/>
<path d="M1590 2080 c0 -5 5 -10 10 -10 6 0 10 5 10 10 0 6 -4 10 -10 10 -5 0
-10 -4 -10 -10z"/>
<path d="M1670 2083 c0 -5 5 -15 10 -23 7 -12 9 -10 7 8 -1 19 -17 33 -17 15z"/>
<path d="M1716 2065 c10 -8 24 -14 29 -14 6 0 1 6 -9 14 -11 8 -24 15 -30 15
-5 0 -1 -7 10 -15z"/>
<path d="M1820 2070 c-8 -5 -12 -12 -9 -15 4 -3 12 1 19 10 14 17 11 19 -10 5z"/>
<path d="M400 2058 c-12 -8 -12 -9 2 -5 9 3 19 1 22 -6 3 -9 5 -9 5 0 1 18
-13 23 -29 11z"/>
<path d="M541 2053 c12 -15 12 -16 -4 -10 -10 4 -16 3 -13 -2 3 -5 -4 -11 -15
-14 -12 -3 -18 -10 -14 -16 3 -6 2 -11 -2 -11 -5 0 -17 -6 -28 -13 -14 -11
-15 -16 -5 -22 9 -6 11 -4 5 5 -6 10 -4 12 9 7 9 -4 15 -3 12 2 -3 5 1 12 10
15 8 3 13 10 10 14 -3 5 11 14 30 21 18 7 34 17 34 22 0 6 -4 7 -10 4 -5 -3
-10 -1 -10 4 0 6 -5 11 -11 11 -8 0 -7 -6 2 -17z"/>
<path d="M1467 2064 c7 -3 15 -5 19 -4 4 1 11 -4 16 -12 8 -11 9 -10 6 1 -2 8
-15 15 -29 17 -13 1 -18 0 -12 -2z"/>
<path d="M1529 2048 c-6 -12 -6 -18 1 -18 5 0 10 7 10 16 0 8 4 13 8 10 4 -2
14 -1 22 4 11 7 9 9 -8 7 -13 -1 -28 -9 -33 -19z"/>
<path d="M1630 2060 c8 -5 18 -6 22 -4 4 3 8 -2 8 -10 0 -9 5 -16 10 -16 22 0
-9 36 -32 37 -17 2 -19 0 -8 -7z"/>
<path d="M371 2055 c0 -5 6 -18 13 -28 12 -16 14 -16 20 -2 3 9 2 13 -3 10 -6
-3 -14 3 -20 12 -6 10 -10 14 -10 8z"/>
<path d="M590 2051 c0 -10 19 -25 25 -20 1 2 -3 10 -11 17 -8 7 -14 8 -14 3z"/>
<path d="M1590 2050 c0 -5 5 -10 10 -10 6 0 10 5 10 10 0 6 -4 10 -10 10 -5 0
-10 -4 -10 -10z"/>
<path d="M1752 2044 c-7 -8 -8 -14 -3 -14 10 0 25 19 20 25 -2 1 -10 -3 -17
-11z"/>
<path d="M1781 2039 c-7 -12 -10 -23 -8 -26 3 -3 11 5 17 17 6 12 10 23 8 25
-2 2 -10 -5 -17 -16z"/>
<path d="M485 2040 c-3 -6 1 -7 9 -4 18 7 21 14 7 14 -6 0 -13 -4 -16 -10z"/>
<path d="M1467 2039 c7 -7 15 -10 18 -7 3 3 -2 9 -12 12 -14 6 -15 5 -6 -5z"/>
<path d="M1557 2033 c-8 -10 -17 -25 -19 -33 -2 -8 -7 -19 -13 -23 -6 -5 -4
-7 4 -5 8 2 15 12 17 22 1 10 10 26 20 37 9 10 15 19 12 19 -3 0 -12 -8 -21
-17z"/>
<path d="M1640 2023 c12 -18 18 -33 14 -33 -5 0 -3 -5 4 -12 9 -9 16 -7 31 6
15 13 20 14 24 4 3 -7 6 -8 6 -2 1 5 -5 18 -11 27 -10 13 -17 14 -28 6 -13 -9
-12 -10 3 -5 20 6 22 -5 5 -22 -13 -13 -32 -16 -24 -4 3 5 -7 21 -20 38 l-26
29 22 -32z"/>
<path d="M1712 2030 c7 -10 14 -18 15 -16 6 6 -9 36 -18 36 -5 0 -4 -9 3 -20z"/>
<path d="M1825 2041 c-3 -6 3 -15 14 -21 20 -10 41 3 27 17 -3 4 -6 1 -6 -5 0
-6 -7 -9 -16 -5 -13 5 -13 7 -2 14 9 6 9 9 1 9 -6 0 -14 -4 -18 -9z"/>
<path d="M335 2031 c-6 -11 33 -36 43 -27 3 3 0 6 -7 6 -7 0 -9 4 -6 10 4 6
-1 7 -11 3 -12 -4 -15 -3 -10 5 4 7 5 12 2 12 -3 0 -7 -4 -11 -9z"/>
<path d="M414 2017 c-3 -9 -4 -22 -1 -29 3 -7 6 -3 6 10 1 14 5 20 12 17 6 -4
8 -14 4 -24 -5 -13 -4 -14 6 -3 11 10 10 15 -4 29 -15 15 -17 15 -23 0z"/>
<path d="M560 2020 c-8 -5 -12 -11 -9 -14 3 -3 14 1 25 9 21 16 8 20 -16 5z"/>
<path d="M630 2020 c0 -5 5 -10 10 -10 6 0 10 5 10 10 0 6 -4 10 -10 10 -5 0
-10 -4 -10 -10z"/>
<path d="M1494 2019 c-3 -6 -1 -16 5 -22 9 -9 11 -8 5 6 -5 13 -2 16 10 11 9
-3 16 -4 16 -1 0 11 -30 16 -36 6z"/>
<path d="M1569 2008 c-6 -11 -8 -22 -5 -26 3 -3 6 0 6 7 0 7 4 9 10 6 5 -3 7
0 5 7 -4 9 2 14 15 14 13 0 19 -5 15 -14 -2 -7 0 -10 5 -7 6 3 10 1 10 -6 0
-7 3 -10 6 -6 3 3 1 13 -4 23 -13 24 -51 25 -63 2z"/>
<path d="M1795 2009 c-4 -12 -2 -26 3 -31 12 -12 35 -1 27 13 -4 5 -2 9 4 9 5
0 12 -5 14 -10 3 -6 4 -5 3 2 -2 7 -9 13 -17 13 -8 0 -13 -6 -11 -12 1 -7 -3
-13 -9 -13 -7 0 -9 10 -5 25 8 30 0 34 -9 4z"/>
<path d="M327 1999 c7 -7 15 -10 18 -7 3 3 -2 9 -12 12 -14 6 -15 5 -6 -5z"/>
<path d="M516 1991 c-10 -11 -16 -26 -13 -33 4 -10 6 -10 6 1 1 8 8 23 18 33
9 10 14 18 11 18 -3 0 -13 -9 -22 -19z"/>
<path d="M580 2000 c-11 -8 -8 -9 13 -4 17 4 27 2 27 -5 0 -6 -5 -10 -11 -8
-6 1 -14 -5 -16 -13 -4 -12 -3 -12 5 -2 5 8 13 13 18 13 5 -1 9 5 9 11 0 17
-26 21 -45 8z"/>
<path d="M1737 1995 c-8 -18 11 -31 25 -17 11 11 3 32 -12 32 -4 0 -10 -7 -13
-15z m23 -5 c0 -5 -5 -10 -11 -10 -5 0 -7 5 -4 10 3 6 8 10 11 10 2 0 4 -4 4
-10z"/>
<path d="M304 1979 c-5 -8 -3 -9 6 -4 9 6 12 4 8 -7 -4 -8 -3 -21 2 -27 5 -9
8 -4 8 13 0 30 -13 42 -24 25z"/>
<path d="M357 1979 c-19 -11 -23 -29 -6 -29 5 0 8 4 5 9 -3 5 1 12 9 15 23 9
14 -26 -10 -41 -11 -7 -15 -12 -10 -12 19 -1 39 17 42 38 3 25 -7 32 -30 20z"/>
<path d="M536 1981 c-4 -5 -3 -17 1 -27 4 -11 3 -15 -4 -11 -6 4 -22 -2 -34
-14 l-24 -20 25 15 c14 8 30 16 35 18 6 2 9 11 8 20 -2 12 2 15 12 12 8 -4 15
-12 15 -19 0 -22 16 -26 36 -9 18 14 18 15 -3 4 -19 -9 -23 -8 -23 4 0 18 -36
40 -44 27z"/>
<path d="M1575 1970 c-4 -6 -11 -7 -17 -4 -6 4 -8 2 -4 -4 3 -5 0 -13 -6 -15
-8 -4 -9 -6 -2 -6 6 -1 17 6 24 14 14 17 46 20 55 5 8 -13 25 -13 25 1 0 5 -4
8 -9 4 -5 -3 -12 -1 -16 5 -3 5 -15 10 -25 10 -10 0 -22 -5 -25 -10z"/>
<path d="M400 1957 c0 -5 9 -6 20 -2 16 5 19 3 14 -12 -5 -14 -4 -15 4 -3 6 8
9 17 6 21 -6 10 -44 7 -44 -4z"/>
<path d="M630 1955 c0 -8 2 -15 4 -15 2 0 6 7 10 15 3 8 1 15 -4 15 -6 0 -10
-7 -10 -15z"/>
<path d="M1700 1960 c18 -12 30 -13 30 -2 0 4 -10 9 -22 9 -18 2 -20 0 -8 -7z"/>
<path d="M1770 1960 c0 -5 5 -10 10 -10 6 0 10 5 10 10 0 6 -4 10 -10 10 -5 0
-10 -4 -10 -10z"/>
<path d="M480 1951 c0 -7 -4 -10 -9 -6 -11 6 -36 -33 -27 -43 3 -3 6 0 6 7 0
7 4 9 10 6 6 -4 7 1 3 11 -4 11 -3 15 5 10 12 -7 28 12 18 21 -3 4 -6 1 -6 -6z"/>
<path d="M655 1951 c-6 -10 33 -36 42 -28 2 3 -5 8 -16 12 -12 3 -19 11 -16
16 4 5 4 9 1 9 -3 0 -7 -4 -11 -9z"/>
<path d="M1806 1945 c4 -8 11 -15 16 -15 6 0 5 6 -2 15 -7 8 -14 15 -16 15 -2
0 -1 -7 2 -15z"/>
<path d="M284 1939 c-4 -8 -3 -9 4 -5 8 5 12 0 12 -13 0 -11 4 -22 9 -25 4 -3
6 6 3 19 -5 30 -18 40 -28 24z"/>
<path d="M1579 1948 c-8 -34 -8 -51 0 -38 5 8 7 18 5 22 -3 4 4 8 16 8 12 0
19 -4 16 -9 -3 -5 3 -20 15 -32 l20 -24 -15 25 c-8 14 -14 30 -13 35 2 9 -42
22 -44 13z"/>
<path d="M1678 1943 c12 -2 20 -8 18 -12 -3 -4 0 -13 5 -21 7 -11 8 -8 6 10
-3 18 -10 25 -28 27 -23 1 -23 1 -1 -4z"/>
<path d="M1732 1937 c-9 -10 -6 -21 13 -47 14 -19 25 -29 25 -23 0 7 -5 15
-10 18 -6 4 -7 11 -4 17 4 7 2 8 -4 4 -7 -4 -10 1 -9 14 1 21 12 27 20 10 3
-6 4 -5 3 2 -3 18 -21 21 -34 5z"/>
<path d="M386 1925 c-11 -8 -15 -15 -10 -15 6 0 15 5 21 11 7 7 12 6 16 -5 4
-10 1 -16 -8 -16 -8 0 -15 -5 -15 -10 0 -7 7 -7 20 0 16 9 18 15 10 30 -13 23
-10 23 -34 5z"/>
<path d="M1641 1934 c-1 -5 5 -18 12 -27 9 -13 16 -14 27 -6 12 9 12 10 -4 5
-14 -5 -17 -2 -12 9 3 9 2 14 -3 10 -5 -3 -12 1 -14 7 -3 7 -6 8 -6 2z"/>
<path d="M1795 1916 c6 -26 4 -28 -9 -17 -11 9 -16 10 -16 2 0 -6 5 -11 10
-11 6 0 10 -8 11 -17 0 -14 2 -13 9 5 6 13 6 31 -1 45 -8 19 -9 18 -4 -7z"/>
<path d="M550 1922 c0 -5 7 -17 16 -28 15 -18 15 -18 5 2 -6 12 -7 24 -4 28 3
3 1 6 -5 6 -7 0 -12 -4 -12 -8z"/>
<path d="M611 1925 c4 -3 19 -8 35 -11 16 -3 26 -2 23 1 -4 3 -19 8 -35 11
-16 3 -26 2 -23 -1z"/>
<path d="M507 1909 c-14 -8 -16 -14 -6 -25 6 -8 16 -14 22 -14 6 0 2 7 -9 16
-17 14 -17 15 -1 10 10 -3 16 -2 12 3 -3 5 1 12 7 14 7 3 9 6 3 6 -5 0 -18 -4
-28 -10z"/>
<path d="M588 1913 c6 -2 10 -9 7 -14 -4 -5 1 -6 10 -3 10 4 15 2 13 -7 -2 -8
3 -14 11 -14 8 0 15 6 17 13 1 7 0 8 -3 2 -2 -5 -9 -10 -14 -10 -6 0 -8 4 -4
9 5 10 -25 32 -42 30 -4 0 -2 -3 5 -6z"/>
<path d="M334 1899 c-8 -14 11 -33 25 -25 6 4 11 11 11 16 0 13 -29 20 -36 9z
m21 -9 c3 -5 1 -10 -4 -10 -6 0 -11 5 -11 10 0 6 2 10 4 10 3 0 8 -4 11 -10z"/>
<path d="M690 1900 c0 -5 5 -10 11 -10 5 0 7 5 4 10 -3 6 -8 10 -11 10 -2 0
-4 -4 -4 -10z"/>
<path d="M461 1891 c-11 -7 -9 -10 8 -16 12 -3 18 -11 15 -17 -4 -7 -2 -8 4
-4 6 4 10 -1 9 -13 0 -11 -11 -24 -24 -30 -24 -11 -30 -26 -14 -35 5 -3 14 1
21 9 7 8 9 15 5 15 -4 0 3 8 16 19 l23 18 -26 26 c-14 14 -23 28 -20 31 8 9
-1 7 -17 -3z m19 -95 c0 -3 -4 -8 -10 -11 -5 -3 -10 -1 -10 4 0 6 5 11 10 11
6 0 10 -2 10 -4z"/>
<path d="M540 1885 c0 -8 4 -15 10 -15 5 0 7 7 4 15 -4 8 -8 15 -10 15 -2 0
-4 -7 -4 -15z"/>
<path d="M670 1888 c0 -9 -6 -18 -12 -21 -7 -2 -11 -7 -8 -10 3 -3 13 0 22 7
11 8 14 17 7 27 -7 12 -9 11 -9 -3z"/>
<path d="M280 1880 c0 -5 5 -10 10 -10 6 0 10 5 10 10 0 6 -4 10 -10 10 -5 0
-10 -4 -10 -10z"/>
<path d="M420 1880 c-9 -6 -10 -10 -3 -10 6 0 15 5 18 10 8 12 4 12 -15 0z"/>
<path d="M1598 1883 c12 -2 20 -8 17 -13 -6 -10 34 -35 43 -26 3 3 0 6 -7 6
-7 0 -9 4 -6 10 3 6 -1 7 -10 4 -10 -4 -15 -2 -13 7 2 8 -7 14 -22 15 -22 2
-22 2 -2 -3z"/>
<path d="M1686 1875 c4 -8 8 -15 10 -15 2 0 4 7 4 15 0 8 -4 15 -10 15 -5 0
-7 -7 -4 -15z"/>
<path d="M1726 1874 c17 -14 17 -15 1 -10 -11 3 -16 2 -12 -4 3 -6 1 -10 -6
-10 -7 0 -10 -3 -7 -6 4 -3 16 0 28 6 17 9 19 14 9 26 -6 8 -16 14 -22 14 -6
0 -2 -7 9 -16z"/>
<path d="M253 1873 c4 -3 -1 -12 -11 -20 -15 -13 -15 -13 6 -3 19 9 23 30 5
30 -4 0 -3 -3 0 -7z"/>
<path d="M316 1867 c3 -10 9 -15 12 -12 3 3 0 11 -7 18 -10 9 -11 8 -5 -6z"/>
<path d="M604 1860 c8 -14 15 -29 16 -35 0 -15 23 -12 26 3 1 7 0 8 -3 2 -2
-5 -9 -10 -14 -10 -6 0 -8 4 -5 9 3 5 -3 20 -15 32 l-20 24 15 -25z"/>
<path d="M1669 1864 c6 -12 7 -24 4 -28 -3 -3 -1 -6 5 -6 16 0 15 12 -4 36
-15 18 -15 18 -5 -2z"/>
<path d="M356 1855 c-11 -8 -15 -15 -10 -15 6 0 19 7 30 15 10 8 15 14 9 14
-5 0 -19 -6 -29 -14z"/>
<path d="M435 1860 c-3 -6 -3 -20 1 -33 6 -19 5 -20 -10 -8 -9 7 -16 9 -16 3
0 -12 26 -23 34 -15 3 3 3 17 0 30 -5 19 -3 22 12 16 12 -4 15 -3 10 5 -9 15
-23 15 -31 2z"/>
<path d="M560 1859 c-12 -9 -12 -10 4 -5 14 5 17 2 12 -9 -3 -9 -2 -14 3 -10
5 3 12 -1 14 -7 3 -7 6 -8 6 -2 1 5 -5 18 -11 27 -10 13 -17 14 -28 6z"/>
<path d="M1810 1859 c0 -5 5 -7 10 -4 6 3 10 8 10 11 0 2 -4 4 -10 4 -5 0 -10
-5 -10 -11z"/>
<path d="M275 1850 c-8 -13 14 -42 26 -34 5 3 9 15 8 27 -1 20 -2 20 -8 -3 -5
-17 -9 -21 -15 -12 -4 6 -4 17 -1 22 3 6 4 10 1 10 -3 0 -8 -5 -11 -10z"/>
<path d="M386 1844 c-11 -8 -16 -14 -10 -14 13 0 39 18 34 24 -3 2 -14 -2 -24
-10z"/>
<path d="M533 1840 c3 -17 11 -25 26 -26 19 -2 19 -1 1 3 -11 2 -18 8 -16 12
3 4 0 13 -5 21 -7 11 -8 8 -6 -10z"/>
<path d="M1607 1839 c7 -7 15 -10 18 -7 3 3 -2 9 -12 12 -14 6 -15 5 -6 -5z"/>
<path d="M1741 1837 c-5 -5 -17 -10 -27 -11 -10 -2 -20 -9 -22 -17 -3 -11 -1
-11 7 1 6 8 11 11 11 7 0 -4 10 -2 23 5 12 6 28 13 35 14 23 4 25 13 3 11 -12
-1 -25 -5 -30 -10z"/>
<path d="M1788 1829 c-17 -10 -14 -39 4 -39 6 0 4 8 -3 17 -12 15 -12 16 4 10
10 -4 16 -3 12 2 -3 5 1 12 7 14 7 3 9 6 3 6 -5 0 -18 -4 -27 -10z"/>
<path d="M235 1820 c-3 -5 0 -7 9 -4 11 4 14 0 11 -15 -4 -21 30 -50 43 -37 3
3 0 6 -7 6 -7 0 -9 4 -6 10 4 6 -1 7 -12 3 -15 -5 -16 -3 -6 7 9 10 10 17 2
27 -14 15 -26 17 -34 3z"/>
<path d="M323 1813 c-13 -9 -23 -20 -23 -25 0 -5 7 -3 15 5 8 9 20 17 27 20 7
2 11 7 8 10 -3 2 -15 -2 -27 -10z"/>
<path d="M1640 1821 c-8 -6 -18 -7 -24 -4 -5 4 -1 -5 10 -19 10 -14 21 -24 23
-22 2 2 -1 10 -8 18 -9 11 -8 15 4 20 9 3 15 0 15 -9 0 -8 5 -15 10 -15 7 0 7
6 0 20 -12 23 -11 22 -30 11z"/>
<path d="M352 1804 c-7 -8 -8 -14 -3 -14 10 0 25 19 20 25 -2 1 -10 -3 -17
-11z"/>
<path d="M382 1799 c-11 -17 -9 -21 13 -31 13 -6 22 -14 20 -19 -10 -15 17
-21 30 -8 12 12 11 17 -1 33 -8 11 -14 15 -14 9 0 -7 5 -15 10 -18 12 -7 4
-25 -11 -25 -6 0 -7 5 -4 10 3 6 -1 13 -10 16 -13 5 -13 9 -3 23 10 13 10 14
-2 4 -20 -18 -35 -16 -20 2 7 9 11 17 9 20 -3 2 -10 -5 -17 -16z"/>
<path d="M520 1800 c8 -5 20 -10 25 -10 6 0 3 5 -5 10 -8 5 -19 10 -25 10 -5
0 -3 -5 5 -10z"/>
<path d="M600 1800 c8 -5 20 -10 25 -10 6 0 3 5 -5 10 -8 5 -19 10 -25 10 -5
0 -3 -5 5 -10z"/>
<path d="M1725 1800 c-3 -5 -1 -10 4 -10 6 0 11 5 11 10 0 6 -2 10 -4 10 -3 0
-8 -4 -11 -10z"/>
<path d="M223 1788 c-5 -7 -9 -20 -8 -28 0 -8 -4 -19 -10 -23 -6 -5 -4 -7 5
-4 8 2 14 10 13 16 -4 15 18 13 41 -4 10 -8 22 -12 26 -10 5 3 11 -7 15 -22 6
-25 8 -26 17 -10 5 10 7 21 4 24 -3 4 -6 0 -7 -8 0 -8 -3 -6 -8 5 -4 11 -14
20 -22 22 -8 1 -26 8 -41 16 -21 11 -24 18 -16 26 7 7 9 12 6 12 -3 0 -10 -6
-15 -12z"/>
<path d="M317 1776 c-4 -10 -5 -21 -2 -24 3 -3 5 1 6 9 0 8 4 4 10 -9 5 -13
13 -20 19 -17 5 3 10 2 10 -4 0 -5 -5 -12 -10 -14 -6 -3 -5 -4 2 -3 7 2 13 8
13 14 0 7 -4 11 -8 10 -5 -2 -14 10 -21 27 -11 25 -13 27 -19 11z"/>
<path d="M499 1783 c-1 -5 -1 -11 0 -15 0 -5 -6 -8 -14 -8 -18 0 -20 -16 -3
-26 6 -4 8 -3 5 3 -4 6 0 14 9 17 8 3 12 10 9 16 -3 5 -2 10 3 10 20 0 20 -14
2 -40 -11 -15 -17 -30 -13 -34 3 -3 -1 -6 -10 -6 -9 0 -17 -5 -17 -10 0 -7 7
-7 21 0 11 7 18 14 15 17 -3 3 3 18 14 33 14 20 16 30 8 38 -14 14 -27 16 -29
5z"/>
<path d="M574 1779 c-5 -9 -2 -10 10 -6 15 6 17 3 12 -16 -3 -14 1 -32 9 -43
13 -16 14 -16 9 -1 -3 9 -1 17 5 17 6 0 11 5 11 11 0 8 -4 8 -14 -1 -13 -10
-15 -7 -13 16 2 29 -16 43 -29 23z"/>
<path d="M635 1779 c-4 -6 -5 -12 -2 -15 2 -3 7 2 10 11 7 17 1 20 -8 4z"/>
<path d="M1690 1780 c0 -5 -8 -10 -17 -11 -15 0 -15 -2 2 -9 11 -4 30 -6 43
-3 17 4 21 2 16 -10 -3 -8 -1 -18 4 -21 5 -3 9 5 8 17 -1 18 -7 22 -29 20 -24
-2 -27 0 -17 13 9 10 9 14 1 14 -6 0 -11 -4 -11 -10z"/>
<path d="M1750 1780 c0 -5 5 -10 10 -10 6 0 10 5 10 10 0 6 -4 10 -10 10 -5 0
-10 -4 -10 -10z"/>
<path d="M367 1759 c12 -12 24 -21 27 -18 2 2 -8 13 -22 23 l-27 19 22 -24z"/>
<path d="M550 1771 c0 -10 19 -25 25 -20 1 2 -3 10 -11 17 -8 7 -14 8 -14 3z"/>
<path d="M1620 1771 c0 -6 4 -13 10 -16 6 -3 7 1 4 9 -7 18 -14 21 -14 7z"/>
<path d="M530 1730 c-7 -14 -7 -20 0 -20 5 0 10 8 10 17 0 13 3 14 12 5 9 -9
9 -15 0 -24 -7 -7 -12 -20 -12 -31 0 -10 -5 -15 -10 -12 -6 3 -13 -1 -16 -9
-3 -9 -11 -13 -18 -9 -6 3 -3 -3 7 -14 14 -16 15 -22 5 -26 -7 -3 -8 -6 -2 -6
5 -1 18 5 29 12 14 11 15 16 5 22 -9 5 -11 4 -6 -3 4 -7 3 -12 -3 -12 -5 0
-12 4 -15 8 -6 10 9 34 20 32 5 0 11 7 13 17 1 10 9 25 17 33 11 13 10 17 -6
28 -16 10 -21 9 -30 -8z"/>
<path d="M1660 1735 c14 -17 30 -20 30 -4 0 5 -4 7 -10 4 -5 -3 -10 -1 -10 4
0 6 -5 11 -11 11 -8 0 -8 -5 1 -15z"/>
<path d="M1775 1740 c-3 -5 -1 -10 4 -10 6 0 11 5 11 10 0 6 -2 10 -4 10 -3 0
-8 -4 -11 -10z"/>
<path d="M226 1724 c-11 -8 -16 -14 -10 -14 13 0 39 18 34 24 -3 2 -14 -2 -24
-10z"/>
<path d="M256 1715 c-5 -15 30 -42 42 -31 3 3 0 6 -7 6 -7 0 -9 4 -6 10 3 6
-1 7 -10 4 -11 -5 -14 -2 -9 10 3 9 4 16 1 16 -3 0 -7 -7 -11 -15z"/>
<path d="M377 1715 c-6 -15 10 -32 20 -21 4 3 1 6 -5 6 -6 0 -9 7 -6 15 4 8 4
15 1 15 -3 0 -7 -7 -10 -15z"/>
<path d="M450 1726 c0 -2 7 -7 16 -10 8 -3 12 -2 9 4 -6 10 -25 14 -25 6z"/>
<path d="M1643 1715 c0 -8 4 -12 9 -9 5 3 6 10 3 15 -9 13 -12 11 -12 -6z"/>
<path d="M416 1701 c-3 -5 1 -14 10 -21 12 -11 17 -11 27 0 9 10 9 11 0 6 -7
-4 -19 -4 -25 0 -9 6 -5 10 12 15 23 6 23 7 3 8 -12 1 -24 -3 -27 -8z"/>
<path d="M574 1695 c-3 -8 -4 -20 -1 -27 3 -7 6 -2 6 11 1 21 3 22 19 10 15
-13 16 -12 3 4 -16 21 -20 21 -27 2z"/>
<path d="M197 1686 c-4 -9 -3 -15 2 -12 5 3 12 -1 15 -10 3 -8 10 -12 16 -9 5
3 10 -1 10 -9 0 -20 5 -20 35 0 19 12 25 13 25 3 0 -7 3 -10 6 -6 3 3 3 11 -1
17 -5 8 -14 7 -30 -4 -21 -14 -24 -14 -29 0 -3 8 -10 12 -16 9 -5 -3 -10 -2
-10 4 0 15 18 23 25 11 3 -5 11 -10 18 -10 6 0 2 6 -9 14 -12 9 -23 11 -30 5
-8 -7 -13 -6 -16 3 -3 8 -7 6 -11 -6z"/>
<path d="M331 1683 c-1 -28 13 -37 29 -17 11 12 11 17 0 27 -10 9 -11 9 -6 0
4 -7 4 -19 0 -25 -6 -9 -10 -5 -15 12 -6 23 -7 23 -8 3z"/>
<path d="M501 1680 c-12 -11 -27 -18 -31 -15 -15 9 -22 -14 -10 -32 9 -15 10
-14 4 6 -4 15 -2 21 4 17 6 -3 23 5 39 19 33 29 29 33 -6 5z"/>
<path d="M374 1656 c-16 -14 -23 -26 -16 -26 6 0 12 5 12 11 0 5 5 7 10 4 7
-5 8 -11 1 -19 -14 -17 -8 -47 12 -58 11 -6 17 -5 17 2 0 5 -6 10 -13 10 -7 0
-13 9 -14 20 -2 20 0 19 28 -5 17 -14 34 -23 39 -20 4 3 11 -6 14 -20 6 -24
26 -36 26 -15 0 6 -4 10 -9 10 -5 0 -11 9 -14 21 -3 12 -10 18 -15 15 -11 -7
-66 33 -58 42 3 3 1 11 -5 18 -8 10 -5 12 11 11 15 -1 20 -6 17 -19 -5 -18 29
-46 41 -34 3 3 0 6 -7 6 -7 0 -9 4 -6 10 3 5 0 7 -9 4 -10 -4 -13 0 -10 13 3
11 -1 25 -9 32 -12 9 -20 7 -43 -13z"/>
<path d="M176 1643 c-6 -14 -5 -15 5 -6 7 7 10 15 7 18 -3 3 -9 -2 -12 -12z"/>
<path d="M210 1636 c14 -18 13 -19 -2 -13 -10 3 -18 2 -18 -3 0 -12 27 -13 34
-1 3 5 -2 15 -12 22 -16 13 -16 13 -2 -5z"/>
<path d="M324 1636 c5 -13 2 -17 -9 -12 -15 5 -42 -30 -31 -42 3 -3 6 0 6 7 0
7 4 9 10 6 5 -3 7 0 5 7 -4 9 2 14 15 14 26 0 22 -29 -5 -38 -19 -6 -19 -6 1
-7 37 -2 46 21 22 54 -11 17 -17 22 -14 11z"/>
<path d="M558 1638 c7 -7 16 -7 28 0 14 8 13 10 -10 10 -18 0 -24 -4 -18 -10z"/>
<path d="M266 1618 c-8 -12 -13 -26 -9 -31 3 -5 -3 -6 -15 -3 -11 4 -23 2 -26
-3 -4 -6 4 -9 18 -8 14 1 26 7 26 12 1 6 8 20 16 33 19 28 10 29 -10 0z"/>
<path d="M476 1614 c-8 -20 -8 -24 2 -24 4 0 8 9 9 20 2 24 -3 26 -11 4z"/>
<path d="M585 1613 c-5 -10 -7 -21 -7 -25 1 -5 -5 -8 -13 -8 -8 0 -15 -5 -15
-10 0 -7 6 -7 19 -1 10 6 22 7 27 3 5 -4 3 0 -4 9 -9 12 -9 18 0 27 6 6 9 14
6 17 -3 3 -9 -2 -13 -12z"/>
<path d="M173 1610 c2 -8 12 -16 23 -17 13 -2 15 -1 4 4 -8 3 -19 11 -23 17
-6 7 -7 6 -4 -4z"/>
<path d="M546 1605 c-11 -8 -15 -15 -9 -15 6 0 16 7 23 15 16 19 11 19 -14 0z"/>
<path d="M495 1580 c-8 -13 3 -30 18 -30 7 0 6 4 -3 10 -8 5 -12 12 -8 15 3 3
13 -2 23 -11 16 -16 16 -18 -7 -30 -12 -7 -19 -13 -15 -14 5 0 17 5 28 10 15
9 17 15 9 29 -11 22 -37 34 -45 21z"/>
<path d="M192 1556 c7 -8 15 -12 17 -11 5 6 -10 25 -20 25 -5 0 -4 -6 3 -14z"/>
<path d="M270 1562 c0 -4 10 -9 22 -9 18 -2 20 0 8 7 -18 12 -30 13 -30 2z"/>
<path d="M350 1562 c0 -4 10 -9 22 -9 18 -2 20 0 8 7 -18 12 -30 13 -30 2z"/>
<path d="M416 1555 c-5 -15 30 -42 42 -31 3 3 0 6 -7 6 -7 0 -9 4 -6 10 3 6
-1 7 -10 4 -11 -5 -14 -2 -9 10 3 9 4 16 1 16 -3 0 -7 -7 -11 -15z"/>
<path d="M230 1549 c0 -5 5 -7 10 -4 6 3 10 1 10 -4 0 -6 5 -11 11 -11 8 0 8
5 -1 15 -14 17 -30 20 -30 4z"/>
<path d="M175 1540 c-11 -18 7 -32 33 -25 22 5 24 4 13 -9 -9 -11 -10 -16 -2
-16 6 0 11 5 11 10 0 6 8 10 18 11 14 0 14 2 -3 9 -11 4 -30 6 -43 3 -17 -4
-21 -2 -16 11 7 18 -1 22 -11 6z"/>
<path d="M315 1540 c-8 -13 3 -30 18 -29 9 0 9 2 0 6 -7 2 -13 9 -13 14 0 4 7
5 17 2 11 -4 14 -3 9 5 -9 15 -23 15 -31 2z"/>
<path d="M280 1534 c0 -6 7 -19 15 -30 8 -10 14 -14 14 -9 0 6 -6 19 -14 29
-8 11 -15 15 -15 10z"/>
<path d="M360 1537 c0 -19 22 -47 32 -41 7 5 9 -2 4 -22 -5 -24 -4 -26 5 -11
11 19 4 55 -8 43 -4 -4 -13 4 -20 16 -7 13 -12 19 -13 15z"/>
<path d="M390 1531 c0 -9 30 -24 36 -18 2 1 -6 8 -16 15 -11 7 -20 8 -20 3z"/>
<path d="M546 1524 c-11 -8 -16 -14 -10 -14 13 0 39 18 34 24 -3 2 -14 -2 -24
-10z"/>
<path d="M575 1509 c-4 -6 -5 -12 -2 -15 2 -3 7 2 10 11 7 17 1 20 -8 4z"/>
<path d="M157 1497 c-3 -8 -2 -20 3 -26 5 -9 8 -4 8 13 0 29 -3 32 -11 13z"/>
<path d="M275 1493 c3 -12 1 -24 -5 -28 -5 -3 -10 1 -10 9 0 9 -5 16 -10 16
-7 0 -7 -6 0 -20 6 -11 16 -17 25 -14 17 7 19 23 4 44 -8 12 -9 10 -4 -7z"/>
<path d="M350 1504 c0 -13 18 -39 24 -34 2 3 -2 14 -10 24 -8 11 -14 16 -14
10z"/>
<path d="M434 1494 c-18 -14 -18 -15 3 -5 18 9 22 8 26 -7 4 -15 5 -15 6 0 2
24 -13 30 -35 12z"/>
<path d="M494 1495 c-3 -8 -3 -19 1 -25 3 -5 -2 -10 -13 -10 -10 0 -27 -10
-38 -22 -19 -23 -19 -23 1 -7 11 10 29 19 39 20 12 3 20 14 22 32 3 29 -3 36
-12 12z"/>
<path d="M520 1485 c0 -8 4 -15 10 -15 5 0 7 7 4 15 -4 8 -8 15 -10 15 -2 0
-4 -7 -4 -15z"/>
<path d="M551 1490 c0 -8 4 -22 9 -30 12 -18 12 -2 0 25 -6 13 -9 15 -9 5z"/>
<path d="M180 1479 c0 -5 5 -7 10 -4 6 3 10 8 10 11 0 2 -4 4 -10 4 -5 0 -10
-5 -10 -11z"/>
<path d="M315 1479 c-11 -16 -1 -19 13 -3 7 8 8 14 3 14 -5 0 -13 -5 -16 -11z"/>
<path d="M220 1469 c0 -5 -4 -8 -8 -5 -4 2 -14 0 -22 -5 -11 -7 -9 -8 9 -6 21
3 45 27 27 27 -3 0 -6 -5 -6 -11z"/>
<path d="M440 1471 c0 -7 -5 -9 -10 -6 -9 6 -13 -1 -26 -44 -3 -11 -7 -11 -19
-1 -10 9 -15 9 -15 1 0 -6 5 -11 11 -11 5 0 8 -4 5 -8 -2 -4 4 -13 14 -20 16
-10 21 -9 30 8 7 14 7 20 0 20 -5 0 -10 -8 -10 -17 0 -13 -3 -14 -12 -5 -9 9
-9 15 0 24 7 7 12 20 12 31 0 10 4 16 9 12 11 -6 26 13 17 22 -3 4 -6 1 -6 -6z"/>
<path d="M340 1455 c12 -14 9 -15 -21 -10 -18 3 -31 3 -28 0 12 -11 50 -14 72
-5 17 7 18 9 5 9 -10 1 -18 6 -18 11 0 6 -5 10 -11 10 -8 0 -7 -5 1 -15z"/>
<path d="M515 1450 c-8 -13 14 -42 26 -34 5 3 9 15 8 27 -1 20 -2 20 -8 -3 -5
-17 -9 -21 -15 -12 -4 6 -4 17 -1 22 3 6 4 10 1 10 -3 0 -8 -5 -11 -10z"/>
<path d="M146 1442 c-3 -5 1 -9 9 -9 8 0 15 4 15 9 0 4 -4 8 -9 8 -6 0 -12 -4
-15 -8z"/>
<path d="M230 1443 c0 -5 5 -15 10 -23 7 -12 9 -10 7 8 -1 19 -17 33 -17 15z"/>
<path d="M183 1425 c-11 -8 -23 -11 -27 -8 -3 3 -6 1 -6 -6 0 -7 7 -11 15 -8
16 7 58 -40 49 -54 -3 -5 2 -11 10 -14 9 -3 24 -8 34 -12 9 -3 26 -8 37 -10
16 -2 17 -1 5 6 -8 5 -17 8 -21 5 -4 -2 -10 0 -14 6 -3 5 -15 10 -26 10 -11 0
-18 4 -15 9 4 5 -5 23 -19 40 -24 28 -25 30 -5 28 11 -1 20 -7 20 -14 0 -7 5
-13 10 -13 7 0 7 6 0 19 -15 29 -24 32 -47 16z"/>
<path d="M269 1431 c9 -6 10 -11 2 -15 -8 -5 -4 -17 11 -39 13 -18 22 -34 20
-37 -1 -3 3 -5 10 -5 6 0 12 6 14 13 1 7 0 8 -3 2 -2 -5 -10 -10 -15 -10 -6 0
-8 3 -5 6 4 4 -2 19 -13 34 -18 26 -18 40 2 40 4 0 7 -6 6 -12 -2 -7 3 -13 11
-13 8 0 15 6 17 13 1 7 0 8 -3 2 -2 -5 -9 -10 -14 -10 -6 0 -8 4 -4 9 3 6 -3
15 -14 20 -24 13 -42 14 -22 2z"/>
<path d="M455 1420 c-3 -5 -3 -10 0 -10 4 0 -3 -13 -14 -29 -18 -25 -19 -30
-6 -41 15 -13 39 -4 30 11 -4 5 1 9 9 9 23 0 48 41 34 57 -12 15 -44 17 -53 3z
m48 -6 c11 -11 -5 -35 -30 -45 -13 -5 -21 -13 -18 -19 3 -5 2 -10 -3 -10 -20
0 -20 14 -2 40 11 15 17 30 13 34 -3 3 3 6 14 6 11 0 22 -3 26 -6z"/>
<path d="M556 1413 c-6 -14 -5 -15 5 -6 7 7 10 15 7 18 -3 3 -9 -2 -12 -12z"/>
<path d="M351 1408 c-1 -10 -5 -18 -11 -18 -5 0 -10 -5 -10 -11 0 -8 5 -7 16
2 13 11 14 9 9 -13 -8 -30 11 -47 28 -28 9 10 8 12 -7 6 -15 -5 -17 -2 -13 16
3 13 1 32 -3 43 -7 17 -9 17 -9 3z"/>
<path d="M534 1389 c3 -15 36 -21 36 -7 0 6 -6 8 -14 5 -8 -3 -17 -2 -20 4 -2
5 -3 4 -2 -2z"/>
<path d="M135 1380 c3 -5 8 -10 11 -10 2 0 4 5 4 10 0 6 -5 10 -11 10 -5 0 -7
-4 -4 -10z"/>
<path d="M165 1380 c-6 -9 -4 -11 5 -5 10 6 12 4 7 -9 -4 -9 -3 -15 2 -11 5 3
12 -1 14 -7 3 -7 6 -8 6 -2 1 5 -5 18 -12 29 -11 14 -16 15 -22 5z"/>
<path d="M240 1379 c-12 -9 -12 -10 4 -5 14 5 17 2 12 -9 -3 -9 -2 -14 3 -10
5 3 12 -1 14 -7 3 -7 6 -8 6 -2 1 5 -5 18 -11 27 -10 13 -17 14 -28 6z"/>
<path d="M392 1356 c7 -8 15 -12 17 -11 5 6 -10 25 -20 25 -5 0 -4 -6 3 -14z"/>
<path d="M500 1355 c-10 -12 -9 -16 4 -21 8 -3 21 -4 28 -1 7 3 3 6 -10 6 -14
1 -20 5 -17 12 4 6 14 8 22 5 8 -3 11 -1 8 4 -9 14 -21 12 -35 -5z"/>
<path d="M154 1336 c3 -15 -1 -27 -10 -30 -21 -8 -5 -36 20 -35 20 0 20 1 -3
10 -23 9 -24 10 -5 24 10 8 15 15 9 15 -6 0 -5 4 1 8 9 5 8 11 -2 20 -12 11
-14 10 -10 -12z"/>
<path d="M182 1310 c-7 -11 -8 -20 -3 -20 5 0 11 7 15 15 3 9 12 12 23 9 15
-5 16 -4 3 5 -20 15 -23 14 -38 -9z"/>
<path d="M332 1318 c3 -7 15 -15 29 -18 16 -4 20 -8 11 -14 -6 -4 -17 -4 -24
0 -6 4 -8 3 -5 -3 8 -13 55 -14 63 -1 3 5 12 4 20 -3 11 -9 18 -9 26 -1 8 8
15 8 24 1 15 -12 37 -3 29 12 -4 5 -1 9 5 9 8 0 10 -10 6 -27 -5 -23 -4 -25 5
-10 13 22 4 51 -14 44 -6 -2 -11 -10 -9 -16 3 -16 -13 -14 -28 4 -7 8 -20 15
-30 15 -10 0 -23 -7 -30 -15 -15 -18 -31 -20 -27 -3 1 7 -8 14 -21 16 -12 2
-20 8 -17 13 4 5 1 9 -5 9 -7 0 -10 -6 -8 -12z m120 -30 c-9 -9 -15 -9 -24 0
-9 9 -7 12 12 12 19 0 21 -3 12 -12z"/>
<path d="M390 1318 c0 -11 12 -10 30 2 12 7 10 9 -8 7 -12 0 -22 -5 -22 -9z"/>
<path d="M470 1320 c0 -5 5 -10 10 -10 6 0 10 5 10 10 0 6 -4 10 -10 10 -5 0
-10 -4 -10 -10z"/>
<path d="M540 1320 c-8 -5 -10 -10 -5 -10 6 0 17 5 25 10 8 5 11 10 5 10 -5 0
-17 -5 -25 -10z"/>
<path d="M235 1300 c-8 -13 3 -30 18 -29 9 0 9 2 0 6 -7 2 -13 9 -13 14 0 4 7
5 17 2 11 -4 14 -3 9 5 -9 15 -23 15 -31 2z"/>
<path d="M555 1299 c-4 -6 -5 -12 -2 -15 2 -3 7 2 10 11 7 17 1 20 -8 4z"/>
<path d="M198 1282 c-8 -28 -1 -52 15 -52 7 0 7 4 -1 12 -17 17 -15 33 3 18
10 -9 15 -9 15 -1 0 6 -4 11 -9 11 -5 0 -11 8 -13 18 -3 13 -5 12 -10 -6z"/>
<path d="M280 1297 c-1 -23 22 -46 41 -42 15 3 19 0 15 -11 -3 -8 -2 -13 3
-10 5 3 12 -1 15 -10 3 -8 10 -13 15 -10 5 3 12 -6 15 -20 8 -31 28 -27 36 7
4 16 8 20 14 11 4 -6 4 -17 0 -24 -4 -7 -3 -8 5 -4 6 4 11 13 10 19 -3 25 1
38 11 32 6 -3 7 1 4 10 -4 11 -2 14 9 9 26 -10 29 -34 4 -35 -12 0 -16 -3 -9
-6 7 -3 19 -2 28 1 11 4 12 10 5 25 -17 32 -39 33 -55 3 -8 -15 -18 -26 -23
-24 -4 2 -11 -7 -14 -20 -6 -23 -6 -23 -18 5 -6 16 -15 26 -20 23 -4 -3 -13 5
-19 19 -7 14 -18 22 -29 21 -10 -2 -23 6 -30 18 -7 11 -12 17 -13 13z"/>
<path d="M310 1290 c0 -5 5 -10 10 -10 6 0 10 5 10 10 0 6 -4 10 -10 10 -5 0
-10 -4 -10 -10z"/>
<path d="M1355 1291 c-3 -5 -2 -12 3 -15 5 -3 9 1 9 9 0 17 -3 19 -12 6z"/>
<path d="M1473 1284 c-9 -23 14 -42 30 -25 10 12 9 13 -7 7 -15 -5 -17 -2 -13
14 6 24 -1 27 -10 4z"/>
<path d="M1612 1280 c0 -14 2 -19 5 -12 2 6 2 18 0 25 -3 6 -5 1 -5 -13z"/>
<path d="M1406 1274 c-3 -8 -10 -13 -15 -9 -15 9 -23 -13 -11 -32 9 -16 10
-15 5 5 -4 12 -3 22 2 21 13 -3 43 12 43 22 0 15 -17 10 -24 -7z"/>
<path d="M1500 1285 c0 -8 29 -12 39 -5 9 5 4 8 -13 8 -14 0 -26 -2 -26 -3z"/>
<path d="M2010 1286 c0 -2 7 -7 16 -10 8 -3 12 -2 9 4 -6 10 -25 14 -25 6z"/>
<path d="M1436 1265 c-9 -26 -7 -32 5 -12 6 10 9 21 6 23 -2 3 -7 -2 -11 -11z"/>
<path d="M1544 1265 c-10 -8 -14 -14 -9 -14 6 0 19 6 29 14 11 8 15 15 10 15
-6 0 -19 -7 -30 -15z"/>
<path d="M275 1253 c3 -12 1 -24 -5 -28 -5 -3 -10 1 -10 9 0 9 -5 16 -10 16
-7 0 -7 -6 0 -20 6 -11 16 -17 25 -14 17 7 19 23 4 44 -8 12 -9 10 -4 -7z"/>
<path d="M400 1258 c-12 -8 -12 -9 2 -5 9 3 19 1 22 -6 3 -9 5 -9 5 0 1 18
-13 23 -29 11z"/>
<path d="M530 1251 c-6 -12 -7 -21 -1 -21 10 0 24 30 17 37 -2 3 -9 -5 -16
-16z"/>
<path d="M1590 1265 c0 -5 5 -17 10 -25 5 -8 10 -10 10 -5 0 6 -5 17 -10 25
-5 8 -10 11 -10 5z"/>
<path d="M1995 1260 c-3 -6 1 -7 10 -4 11 5 14 2 9 -12 -5 -15 -4 -16 4 -4 11
15 7 30 -8 30 -5 0 -12 -4 -15 -10z"/>
<path d="M154 1239 c-11 -18 14 -35 29 -20 10 11 9 13 -5 8 -20 -7 -25 9 -5
16 9 4 9 6 0 6 -6 1 -15 -4 -19 -10z"/>
<path d="M1455 1240 c6 -9 -8 -14 -28 -11 -4 1 -10 -6 -13 -14 -3 -8 -10 -12
-15 -9 -5 3 -6 -3 -2 -12 4 -11 8 -13 11 -6 2 8 10 7 27 -4 22 -14 24 -14 35
6 6 12 9 24 6 28 -3 3 -6 0 -6 -7 0 -7 -4 -9 -10 -6 -6 4 -7 -1 -3 -11 5 -14
3 -15 -15 -5 -12 7 -22 17 -22 23 0 6 3 8 6 5 9 -8 44 11 44 23 0 6 -5 10 -11
10 -5 0 -7 -4 -4 -10z"/>
<path d="M1513 1243 c4 -6 0 -14 -9 -17 -9 -4 -14 -9 -11 -13 4 -3 0 -15 -8
-27 -18 -25 -19 -36 -3 -36 6 0 8 3 5 6 -3 4 -1 16 5 28 7 11 11 24 10 29 -1
4 5 7 13 7 18 0 20 16 3 26 -6 4 -8 3 -5 -3z"/>
<path d="M1554 1239 c-8 -14 18 -31 30 -19 9 9 0 30 -14 30 -5 0 -12 -5 -16
-11z m26 -9 c0 -5 -2 -10 -4 -10 -3 0 -8 5 -11 10 -3 6 -1 10 4 10 6 0 11 -4
11 -10z"/>
<path d="M310 1232 c0 -5 14 -18 30 -30 17 -13 30 -21 30 -19 0 2 -13 16 -30
30 -16 15 -30 23 -30 19z"/>
<path d="M230 1221 c0 -6 4 -13 10 -16 6 -3 7 1 4 9 -7 18 -14 21 -14 7z"/>
<path d="M550 1220 c0 -5 5 -10 10 -10 6 0 10 5 10 10 0 6 -4 10 -10 10 -5 0
-10 -4 -10 -10z"/>
<path d="M1614 1215 c-4 -8 -9 -13 -13 -11 -4 3 -8 -5 -8 -17 -2 -18 0 -19 8
-7 20 31 30 50 24 50 -3 0 -8 -7 -11 -15z"/>
<path d="M486 1196 l-39 -19 28 -23 c16 -13 32 -20 35 -17 3 3 -1 8 -8 10 -6
3 -9 10 -6 15 4 7 2 8 -4 4 -7 -4 -17 -4 -23 0 -7 4 2 12 22 21 42 17 43 17
48 2 2 -6 -1 -9 -7 -5 -16 10 -24 -12 -12 -31 9 -15 10 -14 4 6 -4 15 -2 21 4
17 17 -10 26 15 11 28 -11 10 -22 8 -53 -8z"/>
<path d="M180 1200 c-11 -8 -8 -9 13 -4 17 4 27 2 27 -5 0 -6 -5 -10 -11 -8
-6 1 -14 -5 -16 -13 -4 -12 -3 -12 5 -2 5 8 13 13 18 13 5 -1 9 5 9 11 0 17
-26 21 -45 8z"/>
<path d="M311 1192 c27 -17 29 -45 3 -35 -7 3 -12 9 -9 14 6 9 -34 33 -43 25
-3 -3 1 -6 8 -6 11 0 11 -3 2 -12 -8 -8 -6 -18 9 -40 11 -15 17 -28 12 -28
-11 -1 40 -40 52 -40 6 0 -3 9 -20 20 -16 11 -26 20 -22 20 5 0 -1 13 -12 29
-19 27 -19 41 1 41 5 0 6 -5 3 -10 -3 -6 1 -13 9 -16 9 -3 14 -10 11 -14 -3
-5 3 -13 12 -19 10 -5 17 -13 15 -18 -2 -4 1 -9 7 -11 17 -6 24 24 12 45 -9
15 -10 13 -5 -9 4 -18 2 -28 -6 -28 -6 0 -8 5 -5 10 3 6 -1 13 -9 16 -14 5
-14 8 0 29 14 21 13 23 -10 39 -14 9 -29 16 -33 16 -4 0 4 -8 18 -18z"/>
<path d="M1519 1193 c-13 -17 -13 -17 6 -3 11 8 22 16 24 17 2 2 0 3 -6 3 -6
0 -17 -8 -24 -17z"/>
<path d="M1551 1191 c-21 -13 -21 -50 0 -61 12 -7 21 -5 29 5 10 13 10 19 -4
34 -13 15 -14 20 -4 24 7 3 9 6 3 6 -5 0 -16 -3 -24 -8z m19 -26 c14 -16 5
-36 -13 -29 -13 5 -18 44 -6 44 4 0 12 -7 19 -15z"/>
<path d="M1988 1193 c6 -2 10 -9 7 -14 -4 -5 2 -6 12 -3 17 5 17 5 0 -9 -16
-13 -16 -14 9 -14 18 0 22 2 13 8 -8 5 -9 9 -4 9 6 0 1 7 -9 15 -11 8 -25 15
-30 14 -6 0 -5 -3 2 -6z"/>
<path d="M150 1183 c6 -3 15 -15 20 -27 5 -13 17 -22 31 -23 13 0 18 1 12 4
-7 2 -15 4 -19 3 -4 -1 -12 9 -18 21 -6 12 -17 24 -24 25 -7 1 -8 0 -2 -3z"/>
<path d="M239 1183 c-1 -5 -3 -23 -5 -41 -2 -31 -1 -32 13 -15 14 17 14 17 9
0 -3 -11 -2 -16 4 -12 6 3 10 1 10 -6 0 -7 3 -10 6 -7 10 10 -16 49 -28 42 -7
-5 -9 1 -4 20 3 14 4 26 1 26 -3 0 -6 -3 -6 -7z"/>
<path d="M555 1169 c-8 -25 9 -47 20 -28 6 8 4 10 -5 4 -10 -6 -11 -2 -6 19 8
31 0 35 -9 5z"/>
<path d="M136 1155 c4 -8 8 -15 10 -15 2 0 4 7 4 15 0 8 -4 15 -10 15 -5 0 -7
-7 -4 -15z"/>
<path d="M370 1149 c7 -11 14 -19 16 -16 7 7 -7 37 -17 37 -6 0 -5 -9 1 -21z"/>
<path d="M426 1155 c4 -8 8 -15 10 -15 2 0 4 7 4 15 0 8 -4 15 -10 15 -5 0 -7
-7 -4 -15z"/>
<path d="M1410 1160 c0 -5 5 -10 10 -10 6 0 10 5 10 10 0 6 -4 10 -10 10 -5 0
-10 -4 -10 -10z"/>
<path d="M1502 1163 c1 -5 -3 -18 -10 -29 -9 -17 -9 -24 1 -31 24 -19 37 -24
37 -14 0 6 -6 11 -13 11 -7 0 -13 9 -14 20 -2 19 0 19 31 -5 18 -14 36 -22 39
-18 4 3 7 2 7 -3 0 -12 -21 -34 -32 -34 -4 0 -5 8 -2 18 5 14 4 14 -4 2 -12
-16 -7 -30 11 -30 20 0 41 40 28 53 -6 6 -11 8 -11 3 0 -4 -13 2 -30 14 -18
13 -27 26 -23 35 3 8 0 15 -6 15 -6 0 -10 -3 -9 -7z"/>
<path d="M450 1141 c0 -9 30 -24 36 -18 2 1 -6 8 -16 15 -11 7 -20 8 -20 3z"/>
<path d="M1970 1141 c0 -5 7 -12 16 -15 14 -5 15 -4 4 9 -14 17 -20 19 -20 6z"/>
<path d="M2011 1123 c-1 -25 14 -39 25 -22 4 7 3 9 -4 5 -6 -3 -12 3 -15 16
-4 23 -4 23 -6 1z"/>
<path d="M145 1119 c-4 -6 -4 -13 -1 -16 3 -4 6 -1 6 6 0 7 5 9 10 6 6 -3 10
-1 10 4 0 14 -17 14 -25 0z"/>
<path d="M403 1123 c-7 -2 -13 -10 -13 -16 0 -8 4 -7 12 1 17 17 33 15 18 -3
-9 -10 -9 -15 -1 -15 6 0 11 5 11 10 0 6 8 10 18 11 14 0 14 2 -3 9 -23 10
-26 10 -42 3z"/>
<path d="M530 1126 c0 -2 7 -7 16 -10 8 -3 12 -2 9 4 -6 10 -25 14 -25 6z"/>
<path d="M1948 1118 c5 -5 16 -8 23 -6 8 3 3 7 -10 11 -17 4 -21 3 -13 -5z"/>
<path d="M182 1108 c-28 -28 -3 -75 29 -57 10 5 16 15 13 22 -2 7 4 13 16 14
21 2 27 -12 10 -20 -6 -3 -5 -4 2 -3 18 4 16 31 -2 31 -8 1 -24 6 -36 12 -16
9 -24 9 -32 1z m34 -28 c0 -11 -6 -22 -14 -25 -15 -6 -27 19 -18 40 7 20 32 9
32 -15z"/>
<path d="M516 1105 c10 -8 24 -14 29 -14 6 0 1 6 -9 14 -11 8 -24 15 -30 15
-5 0 -1 -7 10 -15z"/>
<path d="M470 1100 c0 -5 5 -10 10 -10 6 0 10 5 10 10 0 6 -4 10 -10 10 -5 0
-10 -4 -10 -10z"/>
<path d="M1990 1104 c0 -13 18 -39 24 -34 2 3 -2 14 -10 24 -8 11 -14 16 -14
10z"/>
<path d="M365 1080 c-3 -6 1 -7 9 -4 18 7 21 14 7 14 -6 0 -13 -4 -16 -10z"/>
<path d="M435 1079 c-11 -16 -1 -19 13 -3 7 8 8 14 3 14 -5 0 -13 -5 -16 -11z"/>
<path d="M494 1079 c-3 -6 -2 -15 2 -19 12 -12 38 5 30 19 -9 14 -23 14 -32 0z
m26 -3 c0 -3 -4 -8 -10 -11 -5 -3 -10 -1 -10 4 0 6 5 11 10 11 6 0 10 -2 10
-4z"/>
<path d="M1460 1080 c-12 -7 -10 -9 8 -7 12 0 22 5 22 9 0 11 -12 10 -30 -2z"/>
<path d="M1956 1074 c-9 -24 -2 -26 12 -4 7 11 8 20 3 20 -5 0 -12 -7 -15 -16z"/>
<path d="M387 1068 c-27 -20 -6 -45 25 -30 21 11 21 12 1 7 -12 -3 -24 -1 -28
5 -3 5 1 10 9 10 9 0 16 5 16 10 0 13 -3 13 -23 -2z"/>
<path d="M460 1070 c-8 -5 -12 -12 -9 -15 4 -3 12 1 19 10 14 17 11 19 -10 5z"/>
<path d="M550 1070 c0 -6 7 -10 15 -10 8 0 15 2 15 4 0 2 -7 6 -15 10 -8 3
-15 1 -15 -4z"/>
<path d="M1430 1072 c0 -5 7 -15 15 -22 8 -7 15 -17 15 -23 0 -5 -10 -2 -22 9
-13 10 -18 12 -11 5 6 -7 10 -19 9 -25 -2 -6 -1 -8 1 -3 3 4 9 5 13 2 10 -6
34 34 26 43 -3 3 -6 -1 -6 -9 -1 -9 -8 -6 -20 10 -11 13 -20 19 -20 13z"/>
<path d="M153 1048 c1 -15 6 -23 11 -18 4 4 4 16 -2 26 -9 16 -10 14 -9 -8z"/>
<path d="M299 1065 c-1 -3 -2 -8 -3 -12 -1 -5 -7 -18 -14 -30 -13 -24 -3 -37
22 -27 12 5 15 2 10 -12 -5 -15 -4 -16 4 -4 15 20 4 32 -20 24 -18 -5 -19 -4
-7 18 7 12 12 26 11 31 -3 11 13 8 26 -5 17 -17 15 -28 -5 -22 -15 5 -16 4 -3
-5 11 -8 18 -7 28 6 6 9 12 22 12 27 0 6 -4 5 -9 -2 -6 -10 -10 -10 -21 3 -12
15 -29 20 -31 10z"/>
<path d="M1497 1064 c-3 -3 -3 -12 0 -20 6 -16 33 -19 33 -4 0 6 -3 9 -7 9
-20 -3 -26 2 -13 11 8 5 10 10 4 10 -6 0 -13 -3 -17 -6z"/>
<path d="M1970 1050 c-5 -10 -10 -22 -10 -27 1 -4 7 3 14 15 12 23 14 23 30 7
9 -10 14 -20 11 -23 -3 -4 -10 0 -15 8 -6 9 -10 10 -10 3 0 -15 17 -26 30 -18
7 4 7 12 0 24 -14 28 -38 33 -50 11z"/>
<path d="M270 1051 c0 -7 -4 -9 -10 -6 -6 4 -7 -1 -4 -12 5 -16 3 -15 -11 2
-12 14 -16 16 -15 5 4 -29 0 -41 -12 -34 -7 4 -8 3 -4 -4 10 -17 26 -15 26 4
0 8 4 13 9 9 11 -6 36 33 27 43 -3 3 -6 0 -6 -7z"/>
<path d="M545 1036 c21 -15 35 -12 35 7 0 8 -3 8 -9 -2 -6 -9 -11 -10 -15 -2
-4 6 -12 11 -19 11 -6 0 -2 -6 8 -14z"/>
<path d="M424 1025 c-10 -8 -14 -14 -9 -14 6 0 19 6 29 14 11 8 15 15 10 15
-6 0 -19 -7 -30 -15z"/>
<path d="M508 1031 c10 -6 10 -10 -2 -21 -9 -7 -13 -16 -11 -21 3 -4 -4 -7
-15 -6 -11 1 -20 7 -20 14 0 7 -5 13 -10 13 -12 0 3 -35 19 -44 11 -7 46 19
46 35 0 7 6 14 14 17 9 3 11 0 6 -8 -6 -9 -4 -11 5 -5 10 6 9 11 -5 22 -11 7
-24 13 -29 13 -6 0 -5 -4 2 -9z"/>
<path d="M173 1017 c-3 -5 -2 -11 1 -14 3 -4 6 -1 6 6 0 7 4 10 8 7 4 -2 14
-1 22 4 11 7 9 9 -8 7 -13 -1 -26 -5 -29 -10z"/>
<path d="M359 1018 c-1 -7 -1 -19 0 -27 2 -7 -2 -10 -8 -6 -6 3 -14 -2 -17
-12 -3 -10 -8 -25 -11 -33 -4 -8 -8 -24 -10 -35 -2 -16 -1 -17 6 -5 5 8 8 17
5 21 -2 4 0 10 6 14 5 3 10 15 10 26 0 12 4 17 11 14 6 -4 8 -14 4 -23 -3 -9
-2 -13 2 -8 8 8 14 86 7 86 -2 0 -5 -6 -5 -12z"/>
<path d="M470 1020 c0 -5 5 -10 10 -10 6 0 10 5 10 10 0 6 -4 10 -10 10 -5 0
-10 -4 -10 -10z"/>
<path d="M1476 1013 c-6 -14 -5 -15 5 -6 7 7 10 15 7 18 -3 3 -9 -2 -12 -12z"/>
<path d="M1535 1020 c-8 -13 5 -13 25 0 13 8 13 10 -2 10 -9 0 -20 -4 -23 -10z"/>
<path d="M1920 1016 c7 -7 14 -6 21 1 9 9 7 12 -9 10 -14 -1 -18 -5 -12 -11z"/>
<path d="M569 1008 c-8 -7 -12 -12 -10 -11 2 2 9 -5 16 -14 9 -13 14 -13 20
-3 6 9 4 11 -5 5 -10 -6 -12 -3 -8 13 7 26 6 26 -13 10z"/>
<path d="M380 999 c0 -5 5 -7 10 -4 6 3 10 8 10 11 0 2 -4 4 -10 4 -5 0 -10
-5 -10 -11z"/>
<path d="M1494 998 c-4 -7 -3 -8 4 -4 11 7 17 -6 13 -28 -1 -5 4 -4 12 3 10 8
17 8 20 1 3 -6 4 -5 3 2 -2 7 -9 12 -15 11 -6 -2 -11 4 -11 12 0 18 -16 20
-26 3z"/>
<path d="M1972 998 c3 -7 14 -14 26 -16 12 -2 20 -7 18 -11 -3 -4 0 -13 5 -21
7 -11 8 -8 6 10 -3 17 -11 26 -26 28 -12 2 -19 8 -16 13 4 5 1 9 -5 9 -7 0
-10 -6 -8 -12z"/>
<path d="M196 987 c3 -10 9 -15 12 -12 3 3 0 11 -7 18 -10 9 -11 8 -5 -6z"/>
<path d="M420 989 c0 -5 -4 -8 -8 -5 -4 2 -14 0 -22 -5 -11 -7 -9 -8 9 -6 21
3 45 27 27 27 -3 0 -6 -5 -6 -11z"/>
<path d="M1454 989 c1 -7 13 -14 27 -16 18 -2 20 -1 9 6 -8 5 -17 8 -21 5 -4
-2 -10 1 -12 6 -3 6 -4 5 -3 -1z"/>
<path d="M1908 993 c6 -2 10 -9 7 -14 -4 -5 2 -6 12 -2 10 3 15 3 11 -2 -4 -4
1 -20 12 -35 18 -26 18 -40 -2 -40 -4 0 -7 5 -5 11 1 6 -4 13 -11 15 -7 1 -8
0 -2 -3 5 -2 8 -9 5 -13 -6 -10 34 -34 43 -26 3 3 -1 6 -8 6 -11 0 -11 3 -2
12 8 8 6 18 -9 40 -11 15 -17 28 -12 28 4 0 -1 7 -11 15 -11 8 -25 15 -30 14
-6 0 -5 -3 2 -6z"/>
<path d="M165 979 c-5 -8 -4 -10 0 -6 5 4 15 -3 22 -15 7 -13 12 -18 13 -12 0
5 -6 18 -13 29 -12 15 -15 16 -22 4z"/>
<path d="M261 974 c11 -13 9 -15 -17 -9 -25 5 -26 4 -6 -4 13 -7 31 -7 45 -1
17 7 18 9 5 9 -10 1 -18 6 -18 11 0 6 -5 10 -11 10 -8 0 -7 -5 2 -16z"/>
<path d="M520 974 c-11 -12 -11 -17 0 -27 10 -9 11 -9 6 1 -4 6 -4 18 0 24 6
9 10 5 15 -12 6 -23 7 -23 8 -3 1 28 -13 37 -29 17z"/>
<path d="M1961 974 c-1 -5 5 -18 12 -27 9 -13 16 -14 27 -6 12 9 12 10 -4 5
-14 -5 -17 -2 -12 9 3 9 2 14 -3 10 -5 -3 -12 1 -14 7 -3 7 -6 8 -6 2z"/>
<path d="M425 960 c-3 -5 0 -7 8 -4 8 3 18 1 22 -5 3 -7 -3 -11 -17 -12 -13 0
-17 -3 -10 -6 7 -3 20 -2 28 1 13 5 14 9 4 21 -14 17 -26 19 -35 5z"/>
<path d="M300 950 c-8 -5 -12 -12 -9 -15 4 -3 12 1 19 10 14 17 11 19 -10 5z"/>
<path d="M387 948 c-13 -10 -14 -17 -6 -28 9 -13 10 -12 5 3 -3 11 0 17 9 17
8 0 15 5 15 10 0 13 -3 13 -23 -2z"/>
<path d="M1910 950 c0 -5 5 -10 11 -10 5 0 7 5 4 10 -3 6 -8 10 -11 10 -2 0
-4 -4 -4 -10z"/>
<path d="M224 935 c11 -8 22 -12 25 -9 6 6 -19 24 -34 24 -5 -1 -1 -7 9 -15z"/>
<path d="M490 943 c5 -2 8 -8 5 -13 -3 -5 5 -19 17 -32 13 -13 17 -16 10 -7
-8 10 -15 25 -16 35 -2 10 -8 19 -15 20 -6 1 -7 0 -1 -3z"/>
<path d="M557 935 c-4 -9 -3 -13 3 -10 6 3 10 2 10 -3 0 -6 -7 -12 -15 -16 -9
-3 -15 0 -15 9 0 8 -5 15 -10 15 -7 0 -7 -7 0 -20 9 -16 15 -18 30 -10 22 12
24 18 11 38 -7 11 -9 10 -14 -3z"/>
<path d="M270 931 c0 -10 19 -25 25 -20 1 2 -3 10 -11 17 -8 7 -14 8 -14 3z"/>
<path d="M207 919 c7 -7 15 -10 18 -7 3 3 -2 9 -12 12 -14 6 -15 5 -6 -5z"/>
<path d="M350 923 c5 -2 10 -9 10 -14 0 -6 -4 -8 -9 -4 -16 9 -24 -16 -10 -30
12 -12 18 -11 39 7 l25 20 -26 -15 c-25 -15 -39 -13 -39 5 0 4 6 7 13 6 6 -2
12 3 12 11 0 8 -6 15 -13 17 -7 1 -8 0 -2 -3z"/>
<path d="M460 920 c-9 -6 -10 -10 -3 -10 6 0 15 5 18 10 8 12 4 12 -15 0z"/>
<path d="M1890 920 c0 -5 5 -10 10 -10 6 0 10 5 10 10 0 6 -4 10 -10 10 -5 0
-10 -4 -10 -10z"/>
<path d="M1996 913 c-9 -23 -6 -30 5 -11 5 10 16 15 24 12 8 -4 15 -2 15 3 0
15 -38 12 -44 -4z"/>
<path d="M195 897 c12 -10 14 -16 7 -21 -7 -4 -12 -2 -12 5 0 7 -2 10 -5 7 -3
-3 -3 -13 1 -22 6 -15 7 -15 19 1 14 19 3 43 -18 43 -6 0 -3 -6 8 -13z"/>
<path d="M240 900 c-8 -5 -12 -11 -9 -14 3 -3 14 1 25 9 21 16 8 20 -16 5z"/>
<path d="M414 899 c-5 -8 -2 -10 8 -7 12 5 15 -2 14 -37 0 -35 -3 -42 -13 -33
-9 7 -13 7 -13 -1 0 -6 5 -11 10 -11 6 0 10 -8 11 -17 0 -13 3 -12 10 5 5 13
6 28 3 33 -3 5 2 12 10 15 9 3 16 11 16 16 0 6 -6 6 -14 -2 -13 -10 -15 -7
-13 16 2 29 -16 43 -29 23z"/>
<path d="M477 903 c-12 -11 -8 -23 9 -23 8 0 12 -5 9 -11 -4 -6 3 -13 15 -16
16 -4 18 -8 8 -14 -7 -5 -8 -9 -3 -9 6 0 17 4 24 9 12 8 9 11 -12 16 -15 4
-24 11 -21 16 3 5 -2 12 -10 15 -9 3 -13 10 -10 15 6 11 0 12 -9 2z"/>
<path d="M590 900 c0 -5 5 -10 11 -10 5 0 7 5 4 10 -3 6 -8 10 -11 10 -2 0 -4
-4 -4 -10z"/>
<path d="M1876 869 c1 -22 5 -43 9 -47 4 -4 5 6 1 22 -6 26 -5 28 8 17 11 -9
16 -10 16 -2 0 6 -4 11 -10 11 -5 0 -10 6 -10 14 0 8 -4 17 -8 20 -4 3 -7 -13
-6 -35z"/>
<path d="M1910 891 c0 -9 30 -24 36 -18 2 1 -6 8 -16 15 -11 7 -20 8 -20 3z"/>
<path d="M2011 883 c-1 -25 14 -39 25 -22 4 7 3 9 -4 5 -6 -3 -12 3 -15 16 -4
23 -4 23 -6 1z"/>
<path d="M260 880 c-11 -8 -8 -9 13 -4 17 4 27 2 27 -5 0 -6 -6 -10 -12 -8 -7
1 -13 -4 -13 -12 0 -8 6 -15 13 -17 7 -1 8 0 2 3 -14 7 -12 23 3 21 6 -2 12 4
12 12 0 18 -25 24 -45 10z"/>
<path d="M555 880 c-4 -6 -4 -14 -1 -17 3 -4 6 -1 6 5 0 7 5 12 11 12 5 0 8
-4 4 -9 -9 -16 16 -24 29 -10 6 8 7 11 2 7 -15 -12 -26 -10 -23 3 3 16 -20 23
-28 9z"/>
<path d="M387 868 c-13 -11 -14 -16 -4 -29 11 -15 14 -15 27 -1 13 14 12 15
-2 10 -26 -10 -31 5 -6 19 13 7 18 12 12 13 -5 0 -18 -6 -27 -12z"/>
<path d="M214 859 c-8 -14 11 -33 25 -25 6 4 11 11 11 16 0 13 -29 20 -36 9z
m21 -9 c3 -5 1 -10 -4 -10 -6 0 -11 5 -11 10 0 6 2 10 4 10 3 0 8 -4 11 -10z"/>
<path d="M316 853 c-6 -14 -5 -15 5 -6 7 7 10 15 7 18 -3 3 -9 -2 -12 -12z"/>
<path d="M1961 861 c-12 -8 -12 -14 -3 -33 11 -21 12 -21 7 -1 -3 12 -1 24 5
28 5 3 10 -1 10 -9 0 -19 16 -21 26 -3 4 6 4 9 -1 5 -4 -4 -13 -1 -19 7 -7 10
-16 12 -25 6z"/>
<path d="M1916 845 c-9 -26 -7 -32 5 -12 6 10 9 21 6 23 -2 3 -7 -2 -11 -11z"/>
<path d="M335 840 c-4 -7 -2 -17 5 -23 10 -9 12 -8 7 6 -7 18 8 24 16 7 3 -6
4 -5 3 2 -3 16 -23 21 -31 8z"/>
<path d="M472 841 c-11 -6 -10 -10 4 -15 9 -3 19 -4 22 -1 3 3 0 5 -7 5 -7 0
-9 5 -6 10 7 12 4 12 -13 1z"/>
<path d="M564 841 c3 -5 -4 -11 -15 -14 -12 -3 -18 -10 -15 -15 3 -5 -4 -22
-16 -37 l-22 -28 -17 22 c-9 11 -21 21 -25 21 -4 0 1 -9 10 -19 13 -15 14 -20
4 -25 -9 -4 -9 -5 2 -4 8 1 25 -3 36 -10 17 -9 24 -9 31 1 19 24 24 37 14 37
-6 0 -11 -6 -11 -13 0 -7 -10 -13 -21 -14 l-21 -2 20 22 c11 12 22 29 24 37 2
8 14 20 28 26 21 9 22 11 7 17 -10 4 -16 3 -13 -2z"/>
<path d="M195 820 c3 -5 8 -10 11 -10 2 0 4 5 4 10 0 6 -5 10 -11 10 -5 0 -7
-4 -4 -10z"/>
<path d="M261 814 c11 -13 9 -15 -17 -9 -25 5 -26 4 -6 -4 13 -7 31 -7 45 -1
17 7 18 9 5 9 -10 1 -18 6 -18 11 0 6 -5 10 -11 10 -8 0 -7 -5 2 -16z"/>
<path d="M313 817 c4 -11 1 -20 -8 -23 -8 -4 -15 -11 -15 -16 0 -6 8 -4 17 3
15 12 16 12 10 -4 -4 -11 -3 -16 3 -12 11 7 6 53 -6 64 -4 3 -4 -2 -1 -12z"/>
<path d="M615 820 c-3 -5 -1 -10 4 -10 6 0 11 5 11 10 0 6 -2 10 -4 10 -3 0
-8 -4 -11 -10z"/>
<path d="M1855 820 c3 -5 8 -10 11 -10 2 0 4 5 4 10 0 6 -5 10 -11 10 -5 0 -7
-4 -4 -10z"/>
<path d="M1931 825 c0 -5 6 -19 14 -29 8 -11 15 -15 15 -10 0 6 -7 19 -15 30
-8 10 -14 15 -14 9z"/>
<path d="M2010 821 c0 -5 -8 -12 -17 -14 -15 -4 -15 -5 -2 -6 9 0 22 6 29 14
9 10 9 15 1 15 -6 0 -11 -4 -11 -9z"/>
<path d="M510 809 c0 -5 -4 -7 -10 -4 -6 4 -7 -1 -3 -11 5 -13 3 -15 -7 -9 -9
6 -11 4 -5 -5 6 -10 11 -9 22 5 13 19 17 35 8 35 -3 0 -5 -5 -5 -11z"/>
<path d="M590 811 c0 -7 -4 -9 -10 -6 -6 3 -7 -1 -4 -10 5 -11 2 -14 -10 -9
-9 3 -16 4 -16 1 0 -3 7 -7 15 -11 15 -5 42 30 31 42 -3 3 -6 0 -6 -7z"/>
<path d="M386 796 c10 -8 21 -12 24 -10 5 6 -21 24 -34 24 -6 0 -1 -6 10 -14z"/>
<path d="M1906 796 c10 -8 21 -12 24 -10 5 6 -21 24 -34 24 -6 0 -1 -6 10 -14z"/>
<path d="M358 786 c23 -12 23 -14 7 -30 -10 -9 -20 -14 -23 -11 -4 3 0 10 8
15 9 6 10 10 3 10 -17 0 -27 -20 -15 -32 7 -7 17 -3 33 13 21 21 21 23 4 36
-11 7 -24 13 -29 13 -6 -1 0 -7 12 -14z"/>
<path d="M1869 791 c9 -6 10 -11 2 -15 -8 -5 -4 -17 11 -39 13 -18 22 -34 20
-37 -1 -3 6 -5 16 -5 9 0 23 -13 30 -30 16 -37 16 -39 1 -44 -6 -2 -9 1 -5 7
6 10 -46 42 -69 42 -7 0 -18 -7 -25 -15 -15 -18 -31 -20 -27 -4 1 6 -4 13 -11
14 -7 2 -8 1 -2 -2 7 -3 8 -9 1 -17 -7 -8 -4 -12 9 -13 11 -1 22 3 26 8 4 6
11 6 20 -2 10 -8 18 -9 25 -2 12 12 51 5 44 -7 -9 -14 15 -22 29 -11 22 18
-17 87 -47 83 -12 -2 -19 -1 -15 3 4 4 -1 20 -12 35 -18 26 -18 40 2 40 4 0 7
-5 6 -11 -2 -6 4 -14 12 -16 13 -4 13 -3 0 6 -8 6 -10 11 -5 11 13 1 -26 30
-39 30 -6 0 -5 -4 3 -9z m23 -143 c-9 -9 -15 -9 -24 0 -9 9 -7 12 12 12 19 0
21 -3 12 -12z"/>
<path d="M224 775 c11 -8 22 -12 25 -9 6 6 -19 24 -34 24 -5 -1 -1 -7 9 -15z"/>
<path d="M592 770 c-7 -11 -8 -20 -3 -20 9 0 24 30 18 36 -1 2 -8 -6 -15 -16z"/>
<path d="M1982 770 c7 -10 14 -18 15 -16 6 6 -9 36 -18 36 -5 0 -4 -9 3 -20z"/>
<path d="M2007 784 c7 -3 9 -13 6 -22 -4 -14 -3 -14 5 -2 12 16 7 30 -11 29
-9 0 -9 -2 0 -5z"/>
<path d="M270 771 c0 -10 19 -25 25 -20 1 2 -3 10 -11 17 -8 7 -14 8 -14 3z"/>
<path d="M620 761 c-7 -13 -7 -22 0 -26 13 -8 30 3 29 18 0 9 -2 9 -6 0 -2 -7
-9 -13 -14 -13 -6 0 -5 8 1 20 6 11 8 20 6 20 -3 0 -10 -9 -16 -19z"/>
<path d="M420 760 c18 -12 30 -13 30 -2 0 4 -10 9 -22 9 -18 2 -20 0 -8 -7z"/>
<path d="M1932 758 c3 -7 15 -15 29 -18 16 -4 20 -8 11 -14 -6 -4 -17 -4 -24
0 -7 4 -8 3 -4 -5 4 -6 13 -11 19 -10 25 3 38 -1 32 -11 -4 -6 1 -7 12 -3 16
6 16 4 -2 -16 l-20 -23 -6 24 c-7 22 -7 22 -8 1 -2 -38 18 -38 47 -1 12 14 10
18 -12 30 -14 7 -24 18 -23 23 1 6 -8 11 -21 13 -12 2 -20 8 -17 13 4 5 1 9
-5 9 -7 0 -10 -6 -8 -12z"/>
<path d="M390 750 c0 -5 7 -10 16 -10 8 0 13 -4 10 -9 -4 -5 6 -23 20 -40 28
-33 23 -42 -8 -14 -22 20 -43 6 -27 -17 9 -13 10 -12 5 3 -7 21 7 22 24 2 10
-12 10 -15 0 -15 -8 0 -11 -3 -8 -6 4 -3 16 0 28 6 l21 11 -26 30 c-14 17 -23
35 -20 39 3 5 -4 14 -15 20 -13 7 -20 7 -20 0z"/>
<path d="M220 741 c0 -10 39 -11 45 -2 2 5 -7 9 -20 9 -14 0 -25 -3 -25 -7z"/>
<path d="M310 741 c0 -6 4 -13 10 -16 6 -3 7 1 4 9 -7 18 -14 21 -14 7z"/>
<path d="M557 736 c-4 -10 -5 -21 -2 -24 3 -3 5 1 6 9 0 9 3 7 8 -4 4 -10 11
-18 15 -17 5 1 13 -4 18 -12 8 -11 9 -11 6 0 -2 8 -7 12 -12 10 -4 -2 -13 10
-20 27 -11 25 -13 27 -19 11z"/>
<path d="M1840 739 c-12 -9 -12 -10 4 -5 14 5 17 2 12 -9 -3 -9 -2 -14 3 -10
5 3 12 -1 14 -7 3 -7 6 -8 6 -2 1 5 -5 18 -11 27 -10 13 -17 14 -28 6z"/>
<path d="M441 737 c-2 -17 20 -47 30 -42 5 4 9 -1 9 -9 0 -19 16 -21 26 -4 4
7 3 8 -4 4 -12 -7 -16 5 -12 34 1 11 -3 9 -15 -5 -14 -17 -16 -18 -11 -2 3 10
2 16 -3 12 -5 -3 -12 1 -14 7 -3 7 -6 9 -6 5z"/>
<path d="M604 723 c11 -13 29 -22 40 -22 20 1 20 2 1 6 -11 3 -29 12 -40 22
-20 16 -20 16 -1 -6z"/>
<path d="M1915 730 c3 -5 8 -10 11 -10 2 0 4 5 4 10 0 6 -5 10 -11 10 -5 0 -7
-4 -4 -10z"/>
<path d="M260 720 c-11 -8 -8 -9 13 -4 17 4 27 2 27 -5 0 -6 -5 -10 -12 -8 -6
1 -13 -7 -15 -18 -3 -18 -2 -18 5 -2 4 10 12 18 17 18 6 -1 10 5 10 11 0 17
-26 21 -45 8z"/>
<path d="M371 727 c2 -1 13 -9 24 -17 19 -14 19 -14 6 3 -7 9 -18 17 -24 17
-6 0 -8 -1 -6 -3z"/>
<path d="M348 713 c6 -2 10 -9 7 -14 -4 -5 2 -6 11 -2 13 5 15 3 9 -7 -6 -9
-4 -11 5 -5 10 6 9 11 -5 22 -11 7 -24 13 -29 12 -6 0 -5 -3 2 -6z"/>
<path d="M317 696 c-4 -10 -3 -15 3 -11 6 3 10 2 10 -3 0 -15 -28 -22 -34 -9
-3 9 -5 9 -5 0 -1 -19 15 -23 34 -9 13 10 15 17 8 30 -9 17 -11 17 -16 2z"/>
<path d="M507 704 c7 -3 15 -5 19 -4 4 1 11 -4 16 -12 8 -11 9 -10 6 1 -2 8
-15 15 -29 17 -13 1 -18 0 -12 -2z"/>
<path d="M230 696 c0 -2 7 -7 16 -10 8 -3 12 -2 9 4 -6 10 -25 14 -25 6z"/>
<path d="M560 676 c0 -9 -4 -15 -9 -11 -11 6 -36 -33 -27 -43 3 -3 6 0 6 7 0
7 4 9 10 6 6 -4 7 1 3 11 -4 12 -3 15 5 10 13 -8 29 20 18 31 -3 4 -6 -1 -6
-11z"/>
<path d="M620 676 c0 -9 -4 -15 -9 -12 -5 3 -20 -3 -32 -15 l-24 -20 26 15
c14 9 29 13 32 10 4 -4 9 1 13 10 4 9 4 20 0 23 -3 4 -6 -1 -6 -11z"/>
<path d="M650 676 c0 -20 17 -29 26 -15 5 8 3 9 -6 4 -10 -6 -12 -4 -7 8 3 10
2 17 -3 17 -6 0 -10 -6 -10 -14z"/>
<path d="M353 670 c2 -8 10 -14 16 -12 6 1 11 -3 11 -9 0 -7 -10 -9 -27 -5
-23 5 -25 4 -10 -5 21 -12 51 -5 45 12 -2 6 -7 10 -12 9 -5 -1 -13 4 -18 12
-8 10 -9 10 -5 -2z"/>
<path d="M515 669 c-4 -6 -5 -12 -2 -15 2 -3 7 2 10 11 7 17 1 20 -8 4z"/>
<path d="M250 663 c0 -4 5 -15 10 -23 8 -13 10 -13 10 2 0 9 -4 20 -10 23 -5
3 -10 3 -10 -2z"/>
<path d="M466 645 c-11 -8 -15 -15 -10 -15 6 0 15 5 21 11 7 7 12 6 16 -5 4
-10 1 -16 -8 -16 -8 0 -15 -5 -15 -10 0 -7 7 -7 20 0 16 9 18 15 10 30 -13 23
-10 23 -34 5z"/>
<path d="M630 640 c0 -5 5 -10 10 -10 6 0 10 5 10 10 0 6 -4 10 -10 10 -5 0
-10 -4 -10 -10z"/>
<path d="M667 632 c-10 -10 -17 -26 -17 -35 0 -43 48 -19 55 28 2 17 2 24 -1
18 -3 -7 -10 -13 -15 -13 -6 0 -7 5 -4 10 10 16 -1 11 -18 -8z m27 -27 c-9
-22 -34 -27 -34 -6 0 23 8 31 25 24 8 -2 11 -11 9 -18z"/>
<path d="M2010 646 c0 -2 7 -7 16 -10 8 -3 12 -2 9 4 -6 10 -25 14 -25 6z"/>
<path d="M310 630 c0 -5 7 -10 16 -10 14 0 14 -3 4 -15 -7 -9 -8 -15 -2 -15
20 0 21 30 2 40 -14 7 -20 7 -20 0z"/>
<path d="M395 629 c-4 -6 -5 -12 -2 -15 2 -3 7 2 10 11 7 17 1 20 -8 4z"/>
<path d="M588 629 c-9 -5 -15 -15 -12 -22 3 -8 -4 -13 -17 -14 -17 -2 -18 1
-8 13 10 12 9 13 -5 8 -20 -7 -16 -29 5 -29 8 -1 24 -6 35 -13 18 -9 24 -9 34
3 6 8 10 22 7 32 -4 15 -5 15 -6 -2 -1 -27 -37 -31 -37 -4 0 12 5 18 14 14 7
-2 11 -1 7 4 -3 5 1 12 7 14 7 3 9 6 3 6 -5 0 -18 -4 -27 -10z"/>
<path d="M1990 630 c0 -5 7 -10 15 -10 9 0 12 -6 9 -15 -4 -8 -4 -15 -1 -15
16 0 13 31 -3 40 -14 7 -20 7 -20 0z"/>
<path d="M410 610 c-7 -14 -7 -20 0 -20 5 0 10 7 10 16 0 8 5 12 10 9 6 -4 8
-16 5 -28 -5 -17 -4 -19 4 -7 15 21 13 37 -4 44 -9 3 -19 -3 -25 -14z"/>
<path d="M1840 618 c-12 -8 -12 -9 2 -5 9 3 19 1 22 -6 3 -9 5 -9 5 0 1 18
-13 23 -29 11z"/>
<path d="M1891 612 c-8 -15 -7 -22 2 -29 24 -19 37 -24 37 -14 0 6 -6 11 -13
11 -7 0 -13 10 -14 21 l-2 21 23 -21 c12 -11 30 -21 40 -21 10 0 14 -5 11 -11
-4 -6 -14 -8 -22 -5 -8 3 -11 1 -8 -4 4 -6 12 -10 18 -9 25 3 38 -1 32 -11 -4
-6 1 -7 12 -4 17 5 17 5 0 -9 -16 -13 -16 -14 9 -14 15 0 21 3 14 7 -6 4 -10
10 -8 14 1 4 -8 14 -22 21 -14 7 -23 17 -21 22 3 4 -4 10 -15 11 -10 2 -29 13
-41 24 -21 20 -21 20 -32 0z"/>
<path d="M285 604 c9 -9 19 -13 23 -10 3 4 0 11 -8 16 -24 15 -33 11 -15 -6z"/>
<path d="M357 596 c-3 -8 -3 -24 0 -35 4 -17 2 -20 -13 -15 -15 6 -16 4 -7 -6
17 -19 36 -2 28 28 -5 22 -4 24 9 13 11 -9 16 -10 16 -2 0 6 -5 11 -11 11 -5
0 -7 5 -4 10 3 6 2 10 -3 10 -6 0 -12 -6 -15 -14z"/>
<path d="M1970 606 c0 -2 7 -7 16 -10 8 -3 12 -2 9 4 -6 10 -25 14 -25 6z"/>
<path d="M710 590 c0 -5 8 -10 17 -10 9 0 13 -3 10 -6 -8 -9 11 -44 23 -44 6
0 10 5 10 11 0 5 -4 7 -10 4 -9 -6 -14 7 -11 27 0 4 -8 12 -19 18 -14 7 -20 7
-20 0z"/>
<path d="M451 572 c-17 -31 -13 -40 5 -14 9 13 14 26 11 29 -3 2 -10 -4 -16
-15z"/>
<path d="M490 581 c8 -6 11 -11 7 -11 -4 0 -2 -10 5 -22 6 -13 13 -29 14 -36
1 -8 5 -17 8 -20 11 -10 1 32 -14 58 -7 14 -12 27 -11 30 1 2 -3 6 -11 8 -9 2
-8 0 2 -7z"/>
<path d="M1814 576 c5 -15 2 -17 -17 -12 -13 3 -27 3 -30 0 -8 -8 3 -34 15
-34 6 0 5 7 -3 16 -11 13 -9 14 13 9 30 -8 47 11 28 28 -10 9 -12 8 -6 -7z"/>
<path d="M1854 577 c-3 -9 -4 -22 -1 -29 3 -7 6 -3 6 10 1 14 5 20 12 17 6 -4
8 -14 4 -24 -5 -13 -4 -14 6 -3 11 10 10 15 -4 29 -15 15 -17 15 -23 0z"/>
<path d="M310 570 c0 -6 7 -10 15 -10 8 0 15 2 15 4 0 2 -7 6 -15 10 -8 3 -15
1 -15 -4z"/>
<path d="M521 577 c-2 -17 20 -47 30 -42 5 4 9 2 9 -4 0 -5 -5 -12 -10 -14 -6
-3 -5 -4 2 -3 7 1 14 15 15 31 2 26 1 26 -13 9 -15 -18 -15 -18 -10 -1 3 10 2
16 -3 12 -5 -3 -12 1 -14 7 -3 7 -6 9 -6 5z"/>
<path d="M395 559 c-11 -16 -1 -19 13 -3 7 8 8 14 3 14 -5 0 -13 -5 -16 -11z"/>
<path d="M630 562 c0 -13 30 -52 41 -52 5 0 0 9 -11 20 -12 12 -18 25 -15 30
4 6 1 10 -4 10 -6 0 -11 -3 -11 -8z"/>
<path d="M691 567 c2 -1 13 -9 24 -17 19 -14 19 -14 6 3 -7 9 -18 17 -24 17
-6 0 -8 -1 -6 -3z"/>
<path d="M470 550 c0 -5 5 -10 11 -10 5 0 7 5 4 10 -3 6 -8 10 -11 10 -2 0 -4
-4 -4 -10z"/>
<path d="M668 553 c6 -2 10 -9 7 -14 -4 -5 2 -6 11 -2 13 5 15 3 9 -7 -6 -9
-4 -11 5 -5 10 6 9 11 -5 22 -11 7 -24 13 -29 12 -6 0 -5 -3 2 -6z"/>
<path d="M300 546 c0 -2 8 -10 18 -17 15 -13 16 -12 3 4 -13 16 -21 21 -21 13z"/>
<path d="M406 534 c-5 -14 -4 -15 9 -4 17 14 19 20 6 20 -5 0 -12 -7 -15 -16z"/>
<path d="M590 541 c8 -5 18 -7 22 -5 4 3 8 1 8 -5 0 -5 -5 -12 -10 -14 -6 -3
-5 -4 2 -3 23 5 14 29 -12 33 -18 2 -21 1 -10 -6z"/>
<path d="M1830 541 c0 -6 4 -13 10 -16 6 -3 7 1 4 9 -7 18 -14 21 -14 7z"/>
<path d="M1899 547 c0 -1 -2 -10 -4 -20 -2 -10 -9 -26 -17 -36 -7 -9 -3 -6 10
7 12 13 20 27 17 32 -3 5 4 8 15 7 13 -1 19 -6 15 -15 -2 -7 -1 -11 4 -8 5 3
12 -1 15 -10 3 -8 10 -12 16 -9 5 3 10 2 10 -3 0 -20 -15 -20 -43 0 -17 12
-28 17 -24 11 4 -6 0 -14 -9 -17 -8 -3 -13 -10 -10 -14 3 -5 -11 -14 -30 -21
-18 -7 -34 -17 -34 -22 0 -6 5 -7 10 -4 6 3 10 1 10 -4 0 -6 5 -11 11 -11 8 0
7 6 -2 17 -12 15 -12 16 4 10 10 -4 16 -3 13 2 -3 5 4 11 15 14 12 3 18 10 15
15 -10 17 21 21 42 6 17 -12 22 -12 32 1 12 15 5 39 -9 30 -5 -2 -13 6 -18 18
-6 12 -20 23 -32 24 -11 1 -21 1 -22 0z"/>
<path d="M370 520 c0 -5 5 -10 10 -10 6 0 10 5 10 10 0 6 -4 10 -10 10 -5 0
-10 -4 -10 -10z"/>
<path d="M450 520 c0 -13 36 -31 45 -22 5 4 5 -1 2 -11 -4 -11 -3 -16 3 -12 6
3 10 1 10 -6 0 -7 3 -10 6 -7 7 8 -14 48 -24 47 -20 -3 -33 2 -27 11 3 6 1 10
-4 10 -6 0 -11 -4 -11 -10z"/>
<path d="M576 515 c-5 -14 30 -42 41 -32 2 3 -5 8 -16 12 -12 4 -18 12 -14 21
3 7 3 14 0 14 -3 0 -7 -7 -11 -15z"/>
<path d="M720 520 c0 -5 5 -10 10 -10 6 0 10 5 10 10 0 6 -4 10 -10 10 -5 0
-10 -4 -10 -10z"/>
<path d="M780 526 c0 -2 7 -7 16 -10 8 -3 12 -2 9 4 -6 10 -25 14 -25 6z"/>
<path d="M1800 515 c0 -8 -5 -14 -11 -12 -6 1 -14 -4 -16 -10 -7 -18 22 -27
44 -14 15 9 13 10 -9 5 -18 -4 -28 -2 -28 6 0 6 5 8 10 5 6 -3 13 1 16 9 5 14
8 14 29 0 22 -14 24 -14 35 5 7 14 7 21 0 21 -5 0 -10 -7 -10 -16 0 -15 -2
-15 -25 0 -30 20 -35 20 -35 1z"/>
<path d="M755 509 c-4 -6 -5 -12 -2 -15 2 -3 7 2 10 11 7 17 1 20 -8 4z"/>
<path d="M328 503 c6 -2 9 -10 6 -15 -4 -7 -2 -8 5 -4 13 9 5 26 -12 25 -9 0
-8 -2 1 -6z"/>
<path d="M390 495 c-11 -13 -15 -13 -21 -3 -5 7 -9 8 -9 2 0 -5 6 -18 13 -27
9 -13 16 -14 27 -6 13 9 12 10 -2 5 -21 -6 -23 5 -6 22 13 13 32 16 24 4 -3
-5 7 -21 20 -38 l26 -29 -24 35 c-12 19 -21 37 -20 40 9 13 -17 8 -28 -5z"/>
<path d="M630 500 c0 -5 5 -10 10 -10 6 0 10 5 10 10 0 6 -4 10 -10 10 -5 0
-10 -4 -10 -10z"/>
<path d="M676 495 c-11 -8 -15 -15 -10 -15 6 0 19 7 30 15 10 8 15 14 9 14 -5
0 -19 -6 -29 -14z"/>
<path d="M769 489 c-6 -11 -8 -23 -5 -27 3 -3 6 1 6 8 0 10 5 9 18 -3 10 -10
22 -14 27 -10 4 5 5 0 2 -10 -4 -10 -3 -16 2 -13 5 3 12 -1 15 -10 3 -8 10
-12 16 -9 5 3 10 -1 10 -9 0 -8 6 -21 13 -28 7 -7 16 -21 20 -31 3 -9 10 -16
14 -15 4 1 18 -3 30 -10 26 -15 39 0 23 25 -9 15 -10 15 -5 -5 7 -22 5 -23
-17 -11 -12 7 -26 12 -30 11 -5 -1 -8 4 -8 12 0 8 -6 21 -13 28 -7 7 -16 21
-20 31 -4 10 -11 16 -15 13 -5 -3 -14 6 -21 21 -6 14 -15 23 -18 19 -8 -7 -33
13 -33 26 0 6 7 5 15 -2 9 -7 15 -8 15 -2 0 20 -30 21 -41 1z"/>
<path d="M441 497 c-2 -16 20 -47 29 -42 5 3 11 1 15 -5 3 -5 1 -10 -4 -10 -6
0 -11 -5 -11 -10 0 -6 8 -5 19 2 18 11 18 13 3 24 -9 7 -21 10 -26 6 -5 -3 -7
2 -3 12 4 9 3 15 -2 11 -5 -3 -12 1 -14 7 -3 7 -6 9 -6 5z"/>
<path d="M540 480 c-8 -15 -6 -21 10 -30 13 -7 20 -7 20 0 0 5 -7 10 -15 10
-9 0 -12 6 -9 15 5 12 9 13 20 4 8 -7 16 -10 19 -8 2 3 -5 10 -15 17 -16 10
-21 9 -30 -8z"/>
<path d="M830 485 c0 -8 4 -15 10 -15 5 0 7 7 4 15 -4 8 -8 15 -10 15 -2 0 -4
-7 -4 -15z"/>
<path d="M2011 483 c-1 -25 14 -39 25 -22 4 7 3 9 -4 5 -6 -3 -12 3 -15 16 -4
23 -4 23 -6 1z"/>
<path d="M700 479 c-12 -8 -10 -9 7 -4 12 3 24 1 28 -5 3 -5 -1 -10 -9 -10 -9
0 -16 -5 -16 -10 0 -7 6 -7 20 0 11 6 17 16 14 25 -7 17 -23 19 -44 4z"/>
<path d="M1824 465 c-10 -8 -14 -14 -9 -15 15 0 40 18 34 24 -3 3 -14 -1 -25
-9z"/>
<path d="M350 463 c0 -6 8 -17 18 -24 16 -13 16 -13 2 6 -8 11 -16 22 -17 24
-2 2 -3 0 -3 -6z"/>
<path d="M613 458 c7 -20 -9 -25 -16 -5 -4 9 -6 9 -6 0 -1 -18 19 -27 32 -14
8 8 7 14 -2 24 -11 10 -13 9 -8 -5z"/>
<path d="M650 455 c-11 -13 -10 -14 4 -9 9 3 16 10 16 15 0 13 -6 11 -20 -6z"/>
<path d="M1740 450 c6 -11 15 -20 20 -20 6 0 2 9 -7 20 -10 11 -19 20 -21 20
-1 0 2 -9 8 -20z"/>
<path d="M1930 460 c8 -5 13 -10 10 -11 -34 -6 -43 -8 -47 -13 -3 -3 5 -4 18
-3 36 2 50 37 16 37 -7 0 -6 -4 3 -10z"/>
<path d="M1990 464 c0 -13 18 -39 24 -34 2 3 -2 14 -10 24 -8 11 -14 16 -14
10z"/>
<path d="M672 444 c-7 -8 -8 -14 -3 -14 10 0 25 19 20 25 -2 1 -10 -3 -17 -11z"/>
<path d="M409 432 c5 -10 20 -18 33 -19 17 -2 19 0 8 7 -8 5 -18 6 -22 4 -4
-3 -8 2 -8 10 0 9 -5 16 -10 16 -7 0 -7 -6 -1 -18z"/>
<path d="M527 439 c7 -7 15 -10 18 -7 3 3 -2 9 -12 12 -14 6 -15 5 -6 -5z"/>
<path d="M740 440 c-9 -6 -10 -10 -3 -10 6 0 15 5 18 10 8 12 4 12 -15 0z"/>
<path d="M770 446 c0 -2 7 -7 16 -10 8 -3 12 -2 9 4 -6 10 -25 14 -25 6z"/>
<path d="M894 439 c-12 -20 11 -30 32 -13 18 14 18 15 -5 3 -21 -10 -23 -9
-18 5 7 18 2 22 -9 5z"/>
<path d="M1792 436 c7 -8 15 -12 17 -11 5 6 -10 25 -20 25 -5 0 -4 -6 3 -14z"/>
<path d="M1957 436 c-3 -8 -3 -24 0 -35 4 -17 2 -20 -13 -15 -15 6 -16 4 -7
-6 17 -19 36 -2 28 28 -5 22 -4 24 9 13 11 -9 16 -10 16 -2 0 6 -5 11 -11 11
-5 0 -7 5 -4 10 3 6 2 10 -3 10 -6 0 -12 -6 -15 -14z"/>
<path d="M387 416 c-4 -10 -3 -15 3 -11 6 3 10 1 10 -6 0 -7 3 -10 6 -6 3 3 2
13 -4 22 -8 16 -9 16 -15 1z"/>
<path d="M494 419 c-5 -9 -2 -10 9 -6 13 5 15 0 13 -26 -1 -18 -7 -42 -14 -54
-7 -13 -9 -23 -5 -23 4 0 1 -5 -7 -11 -10 -7 -11 -9 -2 -7 8 2 13 7 12 11 -1
11 33 67 42 67 4 0 8 5 8 11 0 8 -4 8 -14 -1 -13 -10 -15 -7 -13 16 2 29 -16
43 -29 23z"/>
<path d="M580 415 c15 -18 -1 -20 -18 -3 -8 8 -12 8 -12 1 0 -17 27 -23 52
-13 18 7 19 9 6 9 -10 1 -18 6 -18 11 0 6 -5 10 -11 10 -8 0 -8 -5 1 -15z"/>
<path d="M630 420 c0 -5 5 -10 10 -10 6 0 10 5 10 10 0 6 -4 10 -10 10 -5 0
-10 -4 -10 -10z"/>
<path d="M701 414 c11 -13 9 -15 -17 -9 -25 5 -26 4 -6 -4 24 -11 52 -5 52 11
0 5 -4 6 -10 3 -5 -3 -10 -1 -10 4 0 6 -5 11 -11 11 -8 0 -7 -5 2 -16z"/>
<path d="M754 416 c-3 -8 -1 -23 5 -33 9 -15 10 -13 5 10 -4 17 -2 27 6 27 6
0 8 -5 5 -10 -3 -6 1 -13 10 -16 13 -5 13 -9 3 -23 -10 -13 -10 -14 2 -3 21
18 32 14 18 -7 -7 -11 -15 -18 -19 -15 -10 6 -33 -36 -25 -44 3 -3 6 1 6 8 0
11 3 11 12 2 8 -8 17 -7 37 7 14 10 31 19 36 20 15 1 12 24 -3 27 -7 1 -8 0
-2 -3 5 -2 10 -10 10 -15 0 -6 -3 -8 -6 -5 -4 4 -19 -2 -34 -13 -26 -18 -40
-18 -40 2 0 5 5 6 10 3 6 -3 13 1 16 9 3 9 10 14 14 11 5 -3 7 2 6 11 -1 9
-13 22 -27 29 -13 8 -23 17 -21 21 2 5 -1 10 -7 12 -6 2 -14 -3 -17 -12z"/>
<path d="M1725 419 c-5 -8 -4 -10 3 -5 8 5 12 -1 13 -16 1 -18 2 -19 6 -4 6
23 -12 43 -22 25z"/>
<path d="M1770 415 c-11 -13 -10 -14 4 -9 9 3 16 10 16 15 0 13 -6 11 -20 -6z"/>
<path d="M801 417 c2 -1 15 -11 29 -22 l25 -20 -19 23 c-11 12 -24 22 -29 22
-6 0 -8 -1 -6 -3z"/>
<path d="M993 404 c-9 -23 14 -42 30 -25 10 12 9 13 -7 7 -15 -5 -17 -2 -13
14 6 24 -1 27 -10 4z"/>
<path d="M1880 414 c0 -6 7 -19 15 -30 8 -10 14 -14 14 -9 0 6 -6 19 -14 29
-8 11 -15 15 -15 10z"/>
<path d="M1910 410 c0 -6 7 -10 15 -10 8 0 15 2 15 4 0 2 -7 6 -15 10 -8 3
-15 1 -15 -4z"/>
<path d="M474 401 c3 -5 -1 -11 -9 -14 -8 -4 -12 -15 -10 -27 3 -17 1 -20 -13
-15 -13 5 -14 3 -5 -6 15 -15 32 -4 28 19 -1 9 7 22 18 28 17 10 18 12 3 17
-10 4 -15 3 -12 -2z"/>
<path d="M946 396 c10 -8 21 -12 24 -10 5 6 -21 24 -34 24 -6 0 -1 -6 10 -14z"/>
<path d="M1026 402 c5 -4 12 -11 15 -15 3 -5 9 -2 12 5 3 9 -3 14 -15 15 -11
1 -16 -1 -12 -5z"/>
<path d="M1075 400 c-10 -17 12 -37 25 -24 8 8 6 15 -4 23 -10 9 -16 9 -21 1z
m20 -10 c3 -5 1 -10 -4 -10 -6 0 -11 5 -11 10 0 6 2 10 4 10 3 0 8 -4 11 -10z"/>
<path d="M1133 398 c3 -9 -1 -19 -9 -22 -17 -6 -19 -26 -2 -26 6 0 8 3 5 7 -4
3 0 11 8 17 11 8 12 15 4 26 -9 13 -10 13 -6 -2z"/>
<path d="M1795 399 c-16 -7 -14 -8 9 -4 26 6 28 4 17 -9 -9 -11 -10 -16 -2
-16 6 0 11 5 11 10 0 6 8 10 18 11 14 0 14 2 -3 9 -25 11 -26 11 -50 -1z"/>
<path d="M1995 399 c-11 -16 -1 -19 13 -3 7 8 8 14 3 14 -5 0 -13 -5 -16 -11z"/>
<path d="M428 393 c7 -3 16 -2 19 1 4 3 -2 6 -13 5 -11 0 -14 -3 -6 -6z"/>
<path d="M623 393 c-7 -2 -13 -9 -13 -15 0 -6 6 -6 15 2 12 10 18 10 30 0 9
-7 15 -8 15 -2 0 8 -26 25 -33 21 -1 0 -8 -3 -14 -6z"/>
<path d="M908 393 c6 -2 10 -9 7 -14 -4 -5 1 -6 10 -3 11 5 14 2 9 -12 -5 -16
-4 -16 5 -4 8 11 7 18 -6 28 -9 6 -22 12 -27 11 -6 0 -5 -3 2 -6z"/>
<path d="M733 378 c7 -20 -9 -25 -16 -5 -4 9 -6 9 -6 0 -1 -18 19 -27 32 -14
8 8 7 14 -2 24 -11 10 -13 9 -8 -5z"/>
<path d="M1757 377 c-3 -8 -2 -20 3 -26 5 -9 8 -4 8 13 0 29 -3 32 -11 13z"/>
<path d="M1875 373 c3 -12 1 -24 -5 -28 -5 -3 -10 1 -10 9 0 9 -5 16 -10 16
-7 0 -7 -6 0 -20 6 -11 16 -17 25 -14 17 7 19 23 4 44 -8 12 -9 10 -4 -7z"/>
<path d="M2006 374 c-5 -14 -4 -15 9 -4 17 14 19 20 6 20 -5 0 -12 -7 -15 -16z"/>
<path d="M417 369 c7 -7 15 -10 18 -7 3 3 -2 9 -12 12 -14 6 -15 5 -6 -5z"/>
<path d="M561 368 c-1 -9 9 -24 21 -32 21 -15 24 -14 44 7 12 12 19 24 17 27
-3 3 -10 -2 -16 -10 -7 -8 -21 -17 -32 -18 -16 -3 -18 -1 -7 9 6 7 12 18 12
24 0 5 -6 1 -12 -10 -11 -19 -11 -19 -19 0 -6 17 -8 17 -8 3z"/>
<path d="M672 364 c-7 -8 -8 -14 -3 -14 10 0 25 19 20 25 -2 1 -10 -3 -17 -11z"/>
<path d="M480 360 c0 -5 5 -10 10 -10 6 0 10 5 10 10 0 6 -4 10 -10 10 -5 0
-10 -4 -10 -10z"/>
<path d="M970 360 c0 -5 5 -10 10 -10 6 0 10 5 10 10 0 6 -4 10 -10 10 -5 0
-10 -4 -10 -10z"/>
<path d="M1050 360 c0 -5 5 -10 10 -10 6 0 10 5 10 10 0 6 -4 10 -10 10 -5 0
-10 -4 -10 -10z"/>
<path d="M1780 359 c0 -5 5 -7 10 -4 6 3 10 8 10 11 0 2 -4 4 -10 4 -5 0 -10
-5 -10 -11z"/>
<path d="M1917 363 c-12 -12 -7 -23 10 -23 9 0 13 -3 10 -6 -4 -4 2 -19 13
-34 18 -26 18 -40 -2 -40 -4 0 -7 6 -5 13 1 7 -7 11 -21 10 -13 -2 -21 1 -17
7 6 10 -33 35 -43 26 -3 -3 1 -6 8 -6 11 0 11 -3 2 -12 -8 -8 -6 -18 8 -38 11
-15 17 -30 14 -33 -3 -3 4 -10 15 -17 14 -7 21 -7 21 0 0 5 -7 10 -17 10 -9 0
-13 3 -10 6 4 4 -2 19 -13 34 -18 26 -18 40 2 40 4 0 7 -6 6 -12 -2 -8 6 -12
20 -11 13 2 21 -1 17 -7 -6 -10 33 -35 43 -26 3 3 -1 6 -8 6 -11 0 -11 3 -2
12 8 8 6 18 -8 38 -11 15 -17 30 -13 33 3 4 -2 9 -11 13 -9 3 -13 10 -10 15 6
11 0 12 -9 2z"/>
<path d="M1972 358 c3 -7 14 -14 26 -16 12 -2 20 -7 18 -11 -3 -4 0 -13 5 -21
7 -11 8 -8 6 10 -3 17 -11 26 -26 28 -12 2 -19 8 -16 13 4 5 1 9 -5 9 -7 0
-10 -6 -8 -12z"/>
<path d="M755 349 c-4 -6 -5 -12 -2 -15 2 -3 7 2 10 11 7 17 1 20 -8 4z"/>
<path d="M1193 339 c-2 -23 3 -25 10 -4 4 8 3 16 -1 19 -4 3 -9 -4 -9 -15z"/>
<path d="M1820 349 c0 -5 -4 -8 -8 -5 -4 2 -19 -5 -32 -15 l-25 -20 25 12 c14
8 29 13 34 14 10 0 22 25 12 25 -3 0 -6 -5 -6 -11z"/>
<path d="M530 330 c-6 -12 -9 -24 -6 -28 3 -3 6 0 6 7 0 7 4 9 10 6 6 -4 7 1
4 12 -5 16 -4 16 10 -1 9 -11 16 -15 16 -9 0 6 -6 16 -14 22 -12 10 -17 8 -26
-9z"/>
<path d="M636 334 c-8 -20 -8 -24 2 -24 4 0 8 9 9 20 2 24 -3 26 -11 4z"/>
<path d="M676 335 c-11 -8 -15 -15 -10 -15 6 0 19 7 30 15 10 8 15 14 9 14 -5
0 -19 -6 -29 -14z"/>
<path d="M994 336 c-3 -8 -1 -23 5 -33 9 -15 10 -13 5 10 -4 17 -2 27 5 27 6
0 10 -6 9 -12 -2 -7 3 -13 11 -13 8 0 15 6 17 13 1 7 0 8 -3 2 -6 -14 -24 -13
-20 1 3 18 -22 23 -29 5z"/>
<path d="M1073 339 c-9 -9 -8 -18 6 -38 10 -14 19 -30 20 -36 1 -5 11 -10 23
-10 32 0 32 45 0 61 -13 6 -23 15 -22 20 2 14 -15 15 -27 3z m22 -9 c-3 -6 5
-14 19 -20 30 -11 32 -50 2 -50 -11 0 -16 3 -13 6 4 4 -2 19 -13 34 -18 26
-18 40 2 40 5 0 6 -5 3 -10z"/>
<path d="M1136 341 c-3 -5 1 -14 10 -21 12 -11 17 -11 27 0 9 10 9 11 0 6 -7
-4 -19 -4 -25 0 -9 6 -5 10 12 15 23 6 23 7 3 8 -12 1 -24 -3 -27 -8z"/>
<path d="M475 329 c-4 -6 -5 -12 -2 -15 2 -3 7 2 10 11 7 17 1 20 -8 4z"/>
<path d="M1961 334 c-1 -5 5 -18 12 -27 9 -13 16 -14 27 -6 12 9 12 10 -4 5
-14 -5 -17 -2 -12 9 3 9 2 14 -3 10 -5 -3 -12 1 -14 7 -3 7 -6 8 -6 2z"/>
<path d="M700 319 c-12 -8 -10 -9 7 -4 12 3 24 1 28 -5 3 -5 -1 -10 -9 -10 -9
0 -16 -5 -16 -10 0 -7 6 -7 20 0 11 6 17 16 14 25 -7 17 -23 19 -44 4z"/>
<path d="M1891 327 c2 -1 13 -9 24 -17 19 -14 19 -14 6 3 -7 9 -18 17 -24 17
-6 0 -8 -1 -6 -3z"/>
<path d="M827 309 c-9 -6 -14 -15 -11 -21 5 -7 -2 -9 -22 -4 -24 5 -26 4 -11
-5 22 -13 51 -4 41 13 -5 8 -2 9 10 5 9 -4 15 -3 11 2 -3 5 1 12 7 14 7 3 9 6
3 6 -5 0 -18 -4 -28 -10z"/>
<path d="M908 313 c6 -2 10 -9 7 -14 -4 -5 2 -6 12 -3 16 5 15 3 -2 -11 -14
-12 -16 -16 -5 -15 29 4 41 0 34 -12 -4 -7 -3 -8 4 -4 17 10 15 26 -4 26 -8 0
-13 4 -9 9 5 10 -25 32 -42 30 -4 0 -2 -3 5 -6z"/>
<path d="M1792 311 c-11 -7 -10 -9 3 -14 9 -4 14 -3 10 2 -3 5 1 12 7 14 7 3
9 6 3 6 -5 0 -16 -3 -23 -8z"/>
<path d="M590 301 c8 -5 17 -8 21 -5 4 2 9 -6 11 -18 3 -22 28 -39 28 -18 0 6
-4 9 -9 5 -5 -3 -11 4 -13 16 -2 15 -11 23 -28 26 -18 2 -21 1 -10 -6z"/>
<path d="M650 295 c-11 -13 -10 -14 4 -9 9 3 16 10 16 15 0 13 -6 11 -20 -6z"/>
<path d="M865 300 c-4 -6 -4 -14 -1 -17 3 -4 6 -1 6 5 0 7 4 12 9 12 6 0 9 -9
8 -20 -1 -12 -7 -18 -14 -16 -13 6 -39 -32 -29 -42 3 -3 6 0 6 7 0 7 4 9 10 6
5 -3 7 0 5 7 -4 9 2 14 14 14 27 0 23 -36 -4 -37 -17 -1 -17 -2 -2 -6 10 -3
24 1 32 7 12 10 12 16 3 34 -7 11 -12 27 -13 35 0 18 -21 26 -30 11z"/>
<path d="M971 305 c0 -5 6 -19 14 -29 8 -11 15 -15 15 -10 0 6 -7 19 -15 30
-8 10 -14 15 -14 9z"/>
<path d="M1037 296 c-15 -12 -15 -15 -3 -25 8 -7 16 -22 18 -34 2 -12 7 -20
12 -19 5 2 12 -2 16 -8 4 -7 8 -1 8 14 0 15 -4 29 -9 32 -5 3 -6 -1 -3 -9 3
-8 1 -18 -5 -22 -6 -3 -11 2 -11 12 0 11 -5 24 -12 31 -9 9 -9 15 0 24 9 9 12
8 12 -5 0 -9 5 -17 10 -17 7 0 7 6 0 20 -13 23 -10 23 -33 6z"/>
<path d="M1169 288 c-5 -10 -7 -18 -3 -18 3 0 1 -7 -6 -15 -9 -11 -10 -18 -1
-28 6 -8 8 -17 4 -20 -11 -11 -23 -8 -20 5 1 7 -7 13 -18 14 -15 1 -16 0 -2
-3 9 -3 15 -8 12 -13 -11 -18 17 -21 36 -4 20 18 25 49 9 59 -14 9 0 34 16 28
8 -3 14 -1 14 4 0 17 -31 10 -41 -9z m11 -50 c0 -16 -3 -19 -11 -11 -6 6 -8
16 -5 22 11 17 16 13 16 -11z"/>
<path d="M1827 303 c-10 -10 -8 -33 3 -33 5 0 6 7 3 17 -4 11 -3 14 5 9 7 -4
12 -2 12 3 0 12 -13 14 -23 4z"/>
<path d="M540 296 c0 -2 7 -6 15 -10 8 -3 15 -1 15 4 0 6 -7 10 -15 10 -8 0
-15 -2 -15 -4z"/>
<path d="M672 284 c-7 -8 -8 -14 -3 -14 10 0 25 19 20 25 -2 1 -10 -3 -17 -11z"/>
<path d="M514 281 c4 -5 1 -12 -4 -14 -6 -3 -5 -4 2 -3 15 3 23 26 8 26 -6 0
-9 -4 -6 -9z"/>
<path d="M576 275 c-5 -15 30 -42 42 -31 3 3 0 6 -7 6 -7 0 -9 4 -6 10 3 6 -1
7 -10 4 -11 -5 -14 -2 -9 10 3 9 4 16 1 16 -3 0 -7 -7 -11 -15z"/>
<path d="M740 280 c-9 -6 -10 -10 -3 -10 6 0 15 5 18 10 8 12 4 12 -15 0z"/>
<path d="M1996 273 c-9 -23 -6 -30 5 -11 5 10 16 15 24 12 8 -4 15 -2 15 3 0
15 -38 12 -44 -4z"/>
<path d="M826 258 c-8 -12 -13 -25 -10 -30 3 -4 -1 -8 -9 -8 -21 0 -42 -29
-30 -41 7 -7 15 -4 24 8 13 16 12 17 -3 4 -12 -9 -18 -10 -18 -2 0 6 12 16 26
22 15 5 24 12 20 16 -3 4 1 17 9 30 19 29 11 31 -9 1z"/>
<path d="M1196 267 c3 -10 9 -15 12 -12 3 3 0 11 -7 18 -10 9 -11 8 -5 -6z"/>
<path d="M536 261 c-6 -9 23 -38 33 -33 3 1 6 -2 6 -7 0 -5 4 -13 9 -18 5 -5
6 -3 2 5 -14 25 28 8 46 -18 16 -23 17 -23 15 -3 0 12 -4 20 -8 17 -4 -2 -10
3 -13 12 -4 9 -9 14 -13 11 -3 -4 -15 -1 -27 5 -20 12 -24 13 -43 17 -5 1 -1
6 7 11 9 6 10 10 3 10 -6 0 -14 -4 -17 -9z"/>
<path d="M701 254 c11 -13 9 -15 -17 -9 -25 5 -26 4 -6 -4 24 -11 52 -5 52 11
0 5 -4 6 -10 3 -5 -3 -10 -1 -10 4 0 6 -5 11 -11 11 -8 0 -7 -5 2 -16z"/>
<path d="M754 256 c-3 -8 -1 -23 5 -33 9 -15 10 -13 5 10 -4 17 -2 27 5 27 6
0 10 -5 9 -11 -2 -6 4 -14 12 -16 12 -4 12 -3 2 5 -8 5 -13 13 -12 18 3 15
-20 16 -26 0z"/>
<path d="M1010 261 c0 -5 7 -12 16 -15 14 -5 15 -4 4 9 -14 17 -20 19 -20 6z"/>
<path d="M1790 259 c0 -5 5 -7 10 -4 10 6 13 -4 12 -42 -1 -13 3 -23 9 -23 6
0 7 5 4 10 -3 6 3 10 15 10 12 0 18 -4 15 -10 -3 -5 -1 -10 5 -10 21 0 4 24
-21 31 -13 4 -20 7 -16 8 11 1 -12 41 -23 41 -6 0 -10 -5 -10 -11z"/>
<path d="M1840 259 c-12 -9 -12 -10 4 -5 14 5 17 2 12 -9 -3 -9 -2 -14 3 -10
5 3 12 -1 14 -7 3 -7 6 -8 6 -2 1 5 -5 18 -11 27 -10 13 -17 14 -28 6z"/>
<path d="M934 241 c2 -14 9 -27 17 -29 11 -3 12 -2 1 6 -8 5 -13 12 -12 16 1
4 -1 12 -4 19 -2 6 -3 1 -2 -12z"/>
<path d="M1922 244 c10 -10 20 -16 22 -13 3 3 -5 11 -17 18 -21 13 -21 12 -5
-5z"/>
<path d="M2011 243 c-1 -25 14 -39 25 -22 4 7 3 9 -4 5 -6 -3 -12 3 -15 16 -4
23 -4 23 -6 1z"/>
<path d="M965 240 c-4 -6 1 -7 12 -3 16 6 16 5 4 -10 -9 -11 -10 -17 -2 -17 6
0 11 5 11 10 0 6 8 10 18 11 14 0 14 2 -3 9 -27 12 -33 12 -40 0z"/>
<path d="M646 226 c10 -8 21 -12 24 -10 5 6 -21 24 -34 24 -6 0 -1 -6 10 -14z"/>
<path d="M733 218 c7 -20 -9 -25 -16 -5 -4 9 -6 9 -6 0 -1 -18 19 -27 32 -14
8 8 7 14 -2 24 -11 10 -13 9 -8 -5z"/>
<path d="M1036 206 c5 -20 3 -27 -4 -22 -11 7 -38 -31 -29 -41 3 -2 8 5 12 16
3 12 11 19 16 16 15 -10 22 22 10 42 -9 15 -10 13 -5 -11z"/>
<path d="M1370 223 c-8 -2 -22 -7 -30 -10 -8 -3 -21 -7 -28 -9 -24 -4 -27 -15
-4 -11 12 2 25 6 28 10 4 4 15 7 25 7 10 0 21 5 24 10 3 6 5 10 3 9 -2 0 -10
-3 -18 -6z"/>
<path d="M1530 215 c-7 -9 -10 -18 -6 -22 3 -3 6 -1 6 6 0 6 10 16 23 21 15 6
17 9 6 9 -9 1 -22 -6 -29 -14z"/>
<path d="M1961 221 c-12 -8 -12 -14 -3 -33 11 -21 12 -21 7 -1 -3 12 -1 24 5
28 5 3 10 -1 10 -9 0 -19 16 -21 26 -3 4 6 4 9 -1 5 -4 -4 -13 -1 -19 7 -7 10
-16 12 -25 6z"/>
<path d="M672 204 c-7 -8 -8 -14 -3 -14 10 0 25 19 20 25 -2 1 -10 -3 -17 -11z"/>
<path d="M918 201 c10 -6 8 -10 -8 -14 -12 -3 -19 -10 -15 -16 3 -6 2 -11 -4
-11 -5 0 -12 5 -14 10 -3 6 -4 5 -3 -2 2 -7 9 -13 17 -13 8 0 13 5 12 11 -1 7
10 15 24 19 21 5 24 8 12 16 -7 5 -18 9 -24 9 -5 0 -4 -4 3 -9z"/>
<path d="M996 194 c-9 -24 -2 -26 12 -4 7 11 8 20 3 20 -5 0 -12 -7 -15 -16z"/>
<path d="M1101 197 c-1 -15 -5 -16 -23 -7 -22 11 -22 11 -4 -4 22 -17 42 -7
33 16 -4 9 -6 7 -6 -5z"/>
<path d="M1180 195 c-10 -12 -8 -17 14 -26 14 -7 23 -15 21 -20 -10 -15 17
-21 30 -8 12 12 11 18 -7 39 l-20 25 15 -26 c15 -26 13 -39 -5 -39 -5 0 -6 5
-3 10 3 6 -1 13 -9 16 -9 3 -13 10 -10 15 3 5 -3 6 -13 3 -16 -5 -16 -4 1 10
11 9 15 16 9 16 -6 0 -16 -7 -23 -15z"/>
<path d="M1472 203 c1 -5 -4 -19 -11 -33 l-12 -25 20 25 c23 28 26 40 11 40
-5 0 -9 -3 -8 -7z"/>
<path d="M840 191 c-14 -4 -24 -13 -22 -19 1 -7 -5 -12 -13 -12 -18 0 -20 -16
-3 -26 7 -4 8 -3 4 4 -7 11 5 16 31 13 6 -1 14 3 18 9 3 5 0 7 -8 4 -8 -3 -18
-1 -22 5 -3 7 2 11 14 11 11 0 23 5 26 10 3 6 5 10 3 9 -2 -1 -14 -4 -28 -8z"/>
<path d="M1340 185 c-7 -9 -8 -15 -2 -15 5 0 12 7 16 15 3 8 4 15 2 15 -2 0
-9 -7 -16 -15z"/>
<path d="M1438 193 c7 -3 16 -2 19 1 4 3 -2 6 -13 5 -11 0 -14 -3 -6 -6z"/>
<path d="M700 175 c7 -8 19 -15 27 -15 8 0 11 -5 8 -11 -4 -6 2 -13 14 -16 11
-3 19 -9 16 -12 -2 -4 2 -8 10 -8 24 0 17 16 -10 23 -14 3 -22 10 -19 16 3 5
-3 12 -15 15 -12 3 -21 9 -21 14 0 5 -5 9 -11 9 -8 0 -8 -5 1 -15z"/>
<path d="M750 183 c0 -6 8 -17 18 -24 16 -13 16 -13 2 6 -8 11 -16 22 -17 24
-2 2 -3 0 -3 -6z"/>
<path d="M1129 163 c5 -16 13 -27 20 -26 16 4 14 -12 -4 -27 -8 -7 -14 -20
-14 -29 1 -13 2 -12 6 2 5 18 5 18 26 0 22 -18 22 -18 4 4 -10 11 -14 24 -9
27 12 7 12 55 1 62 -5 3 -6 -1 -3 -9 3 -8 1 -18 -5 -22 -7 -3 -11 2 -11 14 0
11 -4 22 -9 25 -6 4 -6 -5 -2 -21z"/>
<path d="M1895 180 c-3 -5 -2 -10 4 -10 5 0 13 5 16 10 3 6 2 10 -4 10 -5 0
-13 -4 -16 -10z"/>
<path d="M1931 185 c0 -5 6 -19 14 -29 8 -11 15 -15 15 -10 0 6 -7 19 -15 30
-8 10 -14 15 -14 9z"/>
<path d="M2010 181 c0 -5 -8 -12 -17 -14 -15 -4 -15 -5 -2 -6 9 0 22 6 29 14
9 10 9 15 1 15 -6 0 -11 -4 -11 -9z"/>
<path d="M950 170 c0 -6 7 -10 15 -10 8 0 15 2 15 4 0 2 -7 6 -15 10 -8 3 -15
1 -15 -4z"/>
<path d="M1301 159 c-7 -12 -10 -23 -8 -26 3 -3 11 5 17 17 15 28 8 35 -9 9z"/>
<path d="M1352 164 c-7 -8 -8 -14 -3 -14 10 0 25 19 20 25 -2 1 -10 -3 -17
-11z"/>
<path d="M1395 156 c6 -26 4 -28 -9 -17 -9 8 -16 9 -16 3 0 -13 28 -23 35 -12
3 4 0 19 -5 32 -10 21 -10 20 -5 -6z"/>
<path d="M1830 170 c0 -5 5 -10 10 -10 6 0 10 5 10 10 0 6 -4 10 -10 10 -5 0
-10 -4 -10 -10z"/>
<path d="M1861 159 c-7 -12 -10 -23 -8 -26 3 -3 11 5 17 17 15 28 8 35 -9 9z"/>
<path d="M660 166 c0 -2 7 -6 15 -10 8 -3 15 -1 15 4 0 6 -7 10 -15 10 -8 0
-15 -2 -15 -4z"/>
<path d="M915 150 c-10 -11 -16 -22 -14 -24 2 -2 12 7 22 20 22 29 17 32 -8 4z"/>
<path d="M1040 160 c-8 -5 -12 -11 -10 -14 3 -2 14 2 24 10 22 15 10 19 -14 4z"/>
<path d="M1067 148 c-13 -10 -14 -17 -6 -28 9 -12 10 -12 5 4 -5 14 -2 17 9
12 9 -3 14 -2 10 3 -3 5 1 12 7 14 7 3 8 6 2 6 -5 1 -18 -5 -27 -11z"/>
<path d="M1900 156 c0 -2 7 -6 15 -10 8 -3 15 -1 15 4 0 6 -7 10 -15 10 -8 0
-15 -2 -15 -4z"/>
<path d="M850 130 c-7 -14 -7 -20 0 -20 5 0 10 7 10 15 0 9 6 12 15 9 8 -4 15
-4 15 -1 0 16 -31 13 -40 -3z"/>
<path d="M927 123 c-7 -12 -16 -22 -22 -22 -5 0 -10 -4 -11 -11 -2 -6 -1 -7 3
0 2 5 9 8 14 4 5 -3 12 1 15 9 4 12 10 12 28 4 13 -6 23 -16 21 -22 -1 -5 0
-6 3 -1 2 4 9 2 14 -5 8 -11 9 -11 6 1 -3 8 -17 21 -31 28 -31 15 -36 33 -8
25 10 -3 21 0 25 5 3 6 -5 9 -20 8 -16 0 -31 -10 -37 -23z"/>
<path d="M1105 127 c-4 -15 -10 -25 -14 -23 -10 7 -45 -23 -37 -31 4 -4 12 0
17 10 6 9 15 15 20 11 6 -3 13 4 16 16 4 16 8 18 14 8 5 -7 9 -8 9 -3 0 6 -4
17 -9 24 -8 12 -11 9 -16 -12z"/>
<path d="M1316 135 c-3 -9 -6 -22 -5 -28 0 -7 5 -1 10 12 5 13 8 26 5 28 -2 2
-6 -3 -10 -12z"/>
<path d="M1877 137 c-3 -8 -2 -20 3 -26 5 -9 8 -4 8 13 0 29 -3 32 -11 13z"/>
<path d="M1970 146 c0 -2 7 -9 15 -16 13 -11 14 -10 9 4 -5 14 -24 23 -24 12z"/>
<path d="M2007 144 c7 -3 9 -13 6 -22 -4 -14 -3 -14 5 -2 12 16 7 30 -11 29
-9 0 -9 -2 0 -5z"/>
<path d="M817 127 c-3 -8 -2 -20 3 -26 5 -9 8 -4 8 13 0 29 -3 32 -11 13z"/>
<path d="M990 118 c0 -11 12 -10 30 2 12 7 10 9 -8 7 -12 0 -22 -5 -22 -9z"/>
<path d="M1176 115 c-3 -9 3 -19 14 -25 14 -7 20 -7 20 0 0 5 -7 10 -15 10 -9
0 -12 6 -9 15 4 8 4 15 1 15 -3 0 -7 -7 -11 -15z"/>
<path d="M1209 118 c7 -10 22 -18 33 -18 12 0 17 -4 12 -12 -4 -7 -3 -8 5 -4
15 10 4 26 -18 26 -9 0 -23 6 -31 13 -12 10 -12 9 -1 -5z"/>
<path d="M1251 127 c2 -1 14 -11 27 -21 12 -11 22 -16 22 -13 0 10 -31 37 -42
37 -6 0 -9 -1 -7 -3z"/>
<path d="M1345 120 c3 -5 8 -10 11 -10 2 0 4 5 4 10 0 6 -5 10 -11 10 -5 0 -7
-4 -4 -10z"/>
<path d="M1900 125 c0 -8 29 -12 39 -5 9 5 4 8 -13 8 -14 0 -26 -2 -26 -3z"/>
<path d="M1945 108 l-20 -21 23 12 c12 6 22 16 22 21 0 13 -2 12 -25 -12z"/>
<path d="M875 109 c-4 -6 -5 -12 -2 -15 2 -3 7 2 10 11 7 17 1 20 -8 4z"/>
<path d="M1031 111 c-8 -5 -16 -17 -17 -25 -1 -9 2 -14 7 -10 5 3 7 10 4 15
-4 5 1 9 9 9 9 0 16 5 16 10 0 12 -1 12 -19 1z"/>
<path d="M1976 102 c-2 -4 4 -8 14 -8 10 0 16 4 14 8 -3 4 -9 8 -14 8 -5 0
-11 -4 -14 -8z"/>
<path d="M925 80 c-3 -6 1 -7 9 -4 18 7 21 14 7 14 -6 0 -13 -4 -16 -10z"/>
</g>
</svg>
